G75*
%MOIN*%
%OFA0B0*%
%FSLAX25Y25*%
%IPPOS*%
%LPD*%
%AMOC8*
5,1,8,0,0,1.08239X$1,22.5*
%
%ADD10C,0.16942*%
%ADD11C,0.05950*%
%ADD12C,0.11824*%
D10*
X0028189Y0032142D03*
X0028189Y0099071D03*
X0028189Y0166000D03*
X0125591Y0166709D03*
X0126614Y0099071D03*
X0126614Y0032142D03*
D11*
X0097677Y0008874D03*
X0093740Y0032496D03*
X0097677Y0056118D03*
X0097677Y0075803D03*
X0093740Y0099425D03*
X0097677Y0123047D03*
X0097677Y0142732D03*
X0093740Y0166354D03*
X0097677Y0189976D03*
X0058307Y0166354D03*
X0054370Y0142732D03*
X0054370Y0123047D03*
X0058307Y0099425D03*
X0054370Y0075803D03*
X0054370Y0056118D03*
X0058307Y0032496D03*
X0054370Y0008874D03*
X0054370Y0189976D03*
D12*
X0046496Y0130921D03*
X0030748Y0130921D03*
X0015000Y0130921D03*
X0062244Y0130921D03*
X0077992Y0130921D03*
X0093740Y0130921D03*
X0109488Y0130921D03*
X0125236Y0130921D03*
X0140984Y0130921D03*
X0140984Y0063992D03*
X0125236Y0063992D03*
X0109488Y0063992D03*
X0093740Y0063992D03*
X0077992Y0063992D03*
X0062244Y0063992D03*
X0046496Y0063992D03*
X0030748Y0063992D03*
X0015000Y0063992D03*
M02*
