%
M48
M72
T01C0.03150
T02C0.11024
T03C0.16142
%
T01
X54370Y8874
X58307Y32496
X54370Y56118
X54370Y75803
X58307Y99425
X54370Y123047
X54370Y142732
X58307Y166354
X54370Y189976
X93740Y166354
X97677Y142732
X97677Y123047
X93740Y99425
X97677Y75803
X97677Y56118
X93740Y32496
X97677Y8874
X97677Y189976
T02
X93740Y130921
X77992Y130921
X62244Y130921
X46496Y130921
X30748Y130921
X15000Y130921
X15000Y63992
X30748Y63992
X46496Y63992
X62244Y63992
X77992Y63992
X93740Y63992
X109488Y63992
X125236Y63992
X140984Y63992
X140984Y130921
X125236Y130921
X109488Y130921
T03
X28189Y32142
X28189Y99071
X28189Y166000
X125591Y166709
X126614Y99071
X126614Y32142
M30
