G75*
%MOIN*%
%OFA0B0*%
%FSLAX25Y25*%
%IPPOS*%
%LPD*%
%AMOC8*
5,1,8,0,0,1.08239X$1,22.5*
%
%ADD10C,0.00000*%
%ADD11R,0.08000X0.55118*%
%ADD12C,0.05150*%
D10*
X0007126Y0001000D02*
X0007126Y0198835D01*
X0148583Y0198835D01*
X0148583Y0001000D01*
X0007126Y0001000D01*
X0020118Y0032142D02*
X0020120Y0032340D01*
X0020128Y0032538D01*
X0020140Y0032736D01*
X0020157Y0032933D01*
X0020179Y0033130D01*
X0020205Y0033326D01*
X0020237Y0033522D01*
X0020273Y0033717D01*
X0020314Y0033910D01*
X0020360Y0034103D01*
X0020410Y0034295D01*
X0020466Y0034485D01*
X0020525Y0034674D01*
X0020590Y0034861D01*
X0020659Y0035047D01*
X0020732Y0035231D01*
X0020810Y0035413D01*
X0020893Y0035593D01*
X0020980Y0035771D01*
X0021071Y0035947D01*
X0021167Y0036120D01*
X0021266Y0036291D01*
X0021370Y0036460D01*
X0021478Y0036626D01*
X0021590Y0036789D01*
X0021706Y0036950D01*
X0021826Y0037108D01*
X0021950Y0037262D01*
X0022078Y0037414D01*
X0022209Y0037562D01*
X0022344Y0037707D01*
X0022482Y0037849D01*
X0022624Y0037987D01*
X0022769Y0038122D01*
X0022917Y0038253D01*
X0023069Y0038381D01*
X0023223Y0038505D01*
X0023381Y0038625D01*
X0023542Y0038741D01*
X0023705Y0038853D01*
X0023871Y0038961D01*
X0024040Y0039065D01*
X0024211Y0039164D01*
X0024384Y0039260D01*
X0024560Y0039351D01*
X0024738Y0039438D01*
X0024918Y0039521D01*
X0025100Y0039599D01*
X0025284Y0039672D01*
X0025470Y0039741D01*
X0025657Y0039806D01*
X0025846Y0039865D01*
X0026036Y0039921D01*
X0026228Y0039971D01*
X0026421Y0040017D01*
X0026614Y0040058D01*
X0026809Y0040094D01*
X0027005Y0040126D01*
X0027201Y0040152D01*
X0027398Y0040174D01*
X0027595Y0040191D01*
X0027793Y0040203D01*
X0027991Y0040211D01*
X0028189Y0040213D01*
X0028387Y0040211D01*
X0028585Y0040203D01*
X0028783Y0040191D01*
X0028980Y0040174D01*
X0029177Y0040152D01*
X0029373Y0040126D01*
X0029569Y0040094D01*
X0029764Y0040058D01*
X0029957Y0040017D01*
X0030150Y0039971D01*
X0030342Y0039921D01*
X0030532Y0039865D01*
X0030721Y0039806D01*
X0030908Y0039741D01*
X0031094Y0039672D01*
X0031278Y0039599D01*
X0031460Y0039521D01*
X0031640Y0039438D01*
X0031818Y0039351D01*
X0031994Y0039260D01*
X0032167Y0039164D01*
X0032338Y0039065D01*
X0032507Y0038961D01*
X0032673Y0038853D01*
X0032836Y0038741D01*
X0032997Y0038625D01*
X0033155Y0038505D01*
X0033309Y0038381D01*
X0033461Y0038253D01*
X0033609Y0038122D01*
X0033754Y0037987D01*
X0033896Y0037849D01*
X0034034Y0037707D01*
X0034169Y0037562D01*
X0034300Y0037414D01*
X0034428Y0037262D01*
X0034552Y0037108D01*
X0034672Y0036950D01*
X0034788Y0036789D01*
X0034900Y0036626D01*
X0035008Y0036460D01*
X0035112Y0036291D01*
X0035211Y0036120D01*
X0035307Y0035947D01*
X0035398Y0035771D01*
X0035485Y0035593D01*
X0035568Y0035413D01*
X0035646Y0035231D01*
X0035719Y0035047D01*
X0035788Y0034861D01*
X0035853Y0034674D01*
X0035912Y0034485D01*
X0035968Y0034295D01*
X0036018Y0034103D01*
X0036064Y0033910D01*
X0036105Y0033717D01*
X0036141Y0033522D01*
X0036173Y0033326D01*
X0036199Y0033130D01*
X0036221Y0032933D01*
X0036238Y0032736D01*
X0036250Y0032538D01*
X0036258Y0032340D01*
X0036260Y0032142D01*
X0036258Y0031944D01*
X0036250Y0031746D01*
X0036238Y0031548D01*
X0036221Y0031351D01*
X0036199Y0031154D01*
X0036173Y0030958D01*
X0036141Y0030762D01*
X0036105Y0030567D01*
X0036064Y0030374D01*
X0036018Y0030181D01*
X0035968Y0029989D01*
X0035912Y0029799D01*
X0035853Y0029610D01*
X0035788Y0029423D01*
X0035719Y0029237D01*
X0035646Y0029053D01*
X0035568Y0028871D01*
X0035485Y0028691D01*
X0035398Y0028513D01*
X0035307Y0028337D01*
X0035211Y0028164D01*
X0035112Y0027993D01*
X0035008Y0027824D01*
X0034900Y0027658D01*
X0034788Y0027495D01*
X0034672Y0027334D01*
X0034552Y0027176D01*
X0034428Y0027022D01*
X0034300Y0026870D01*
X0034169Y0026722D01*
X0034034Y0026577D01*
X0033896Y0026435D01*
X0033754Y0026297D01*
X0033609Y0026162D01*
X0033461Y0026031D01*
X0033309Y0025903D01*
X0033155Y0025779D01*
X0032997Y0025659D01*
X0032836Y0025543D01*
X0032673Y0025431D01*
X0032507Y0025323D01*
X0032338Y0025219D01*
X0032167Y0025120D01*
X0031994Y0025024D01*
X0031818Y0024933D01*
X0031640Y0024846D01*
X0031460Y0024763D01*
X0031278Y0024685D01*
X0031094Y0024612D01*
X0030908Y0024543D01*
X0030721Y0024478D01*
X0030532Y0024419D01*
X0030342Y0024363D01*
X0030150Y0024313D01*
X0029957Y0024267D01*
X0029764Y0024226D01*
X0029569Y0024190D01*
X0029373Y0024158D01*
X0029177Y0024132D01*
X0028980Y0024110D01*
X0028783Y0024093D01*
X0028585Y0024081D01*
X0028387Y0024073D01*
X0028189Y0024071D01*
X0027991Y0024073D01*
X0027793Y0024081D01*
X0027595Y0024093D01*
X0027398Y0024110D01*
X0027201Y0024132D01*
X0027005Y0024158D01*
X0026809Y0024190D01*
X0026614Y0024226D01*
X0026421Y0024267D01*
X0026228Y0024313D01*
X0026036Y0024363D01*
X0025846Y0024419D01*
X0025657Y0024478D01*
X0025470Y0024543D01*
X0025284Y0024612D01*
X0025100Y0024685D01*
X0024918Y0024763D01*
X0024738Y0024846D01*
X0024560Y0024933D01*
X0024384Y0025024D01*
X0024211Y0025120D01*
X0024040Y0025219D01*
X0023871Y0025323D01*
X0023705Y0025431D01*
X0023542Y0025543D01*
X0023381Y0025659D01*
X0023223Y0025779D01*
X0023069Y0025903D01*
X0022917Y0026031D01*
X0022769Y0026162D01*
X0022624Y0026297D01*
X0022482Y0026435D01*
X0022344Y0026577D01*
X0022209Y0026722D01*
X0022078Y0026870D01*
X0021950Y0027022D01*
X0021826Y0027176D01*
X0021706Y0027334D01*
X0021590Y0027495D01*
X0021478Y0027658D01*
X0021370Y0027824D01*
X0021266Y0027993D01*
X0021167Y0028164D01*
X0021071Y0028337D01*
X0020980Y0028513D01*
X0020893Y0028691D01*
X0020810Y0028871D01*
X0020732Y0029053D01*
X0020659Y0029237D01*
X0020590Y0029423D01*
X0020525Y0029610D01*
X0020466Y0029799D01*
X0020410Y0029989D01*
X0020360Y0030181D01*
X0020314Y0030374D01*
X0020273Y0030567D01*
X0020237Y0030762D01*
X0020205Y0030958D01*
X0020179Y0031154D01*
X0020157Y0031351D01*
X0020140Y0031548D01*
X0020128Y0031746D01*
X0020120Y0031944D01*
X0020118Y0032142D01*
X0009488Y0063992D02*
X0009490Y0064140D01*
X0009496Y0064288D01*
X0009506Y0064436D01*
X0009520Y0064583D01*
X0009538Y0064730D01*
X0009559Y0064876D01*
X0009585Y0065022D01*
X0009615Y0065167D01*
X0009648Y0065311D01*
X0009686Y0065454D01*
X0009727Y0065596D01*
X0009772Y0065737D01*
X0009820Y0065877D01*
X0009873Y0066016D01*
X0009929Y0066153D01*
X0009989Y0066288D01*
X0010052Y0066422D01*
X0010119Y0066554D01*
X0010190Y0066684D01*
X0010264Y0066812D01*
X0010341Y0066938D01*
X0010422Y0067062D01*
X0010506Y0067184D01*
X0010593Y0067303D01*
X0010684Y0067420D01*
X0010778Y0067535D01*
X0010874Y0067647D01*
X0010974Y0067757D01*
X0011076Y0067863D01*
X0011182Y0067967D01*
X0011290Y0068068D01*
X0011401Y0068166D01*
X0011514Y0068262D01*
X0011630Y0068354D01*
X0011748Y0068443D01*
X0011869Y0068528D01*
X0011992Y0068611D01*
X0012117Y0068690D01*
X0012244Y0068766D01*
X0012373Y0068838D01*
X0012504Y0068907D01*
X0012637Y0068972D01*
X0012772Y0069033D01*
X0012908Y0069091D01*
X0013045Y0069146D01*
X0013184Y0069196D01*
X0013325Y0069243D01*
X0013466Y0069286D01*
X0013609Y0069326D01*
X0013753Y0069361D01*
X0013897Y0069393D01*
X0014043Y0069420D01*
X0014189Y0069444D01*
X0014336Y0069464D01*
X0014483Y0069480D01*
X0014630Y0069492D01*
X0014778Y0069500D01*
X0014926Y0069504D01*
X0015074Y0069504D01*
X0015222Y0069500D01*
X0015370Y0069492D01*
X0015517Y0069480D01*
X0015664Y0069464D01*
X0015811Y0069444D01*
X0015957Y0069420D01*
X0016103Y0069393D01*
X0016247Y0069361D01*
X0016391Y0069326D01*
X0016534Y0069286D01*
X0016675Y0069243D01*
X0016816Y0069196D01*
X0016955Y0069146D01*
X0017092Y0069091D01*
X0017228Y0069033D01*
X0017363Y0068972D01*
X0017496Y0068907D01*
X0017627Y0068838D01*
X0017756Y0068766D01*
X0017883Y0068690D01*
X0018008Y0068611D01*
X0018131Y0068528D01*
X0018252Y0068443D01*
X0018370Y0068354D01*
X0018486Y0068262D01*
X0018599Y0068166D01*
X0018710Y0068068D01*
X0018818Y0067967D01*
X0018924Y0067863D01*
X0019026Y0067757D01*
X0019126Y0067647D01*
X0019222Y0067535D01*
X0019316Y0067420D01*
X0019407Y0067303D01*
X0019494Y0067184D01*
X0019578Y0067062D01*
X0019659Y0066938D01*
X0019736Y0066812D01*
X0019810Y0066684D01*
X0019881Y0066554D01*
X0019948Y0066422D01*
X0020011Y0066288D01*
X0020071Y0066153D01*
X0020127Y0066016D01*
X0020180Y0065877D01*
X0020228Y0065737D01*
X0020273Y0065596D01*
X0020314Y0065454D01*
X0020352Y0065311D01*
X0020385Y0065167D01*
X0020415Y0065022D01*
X0020441Y0064876D01*
X0020462Y0064730D01*
X0020480Y0064583D01*
X0020494Y0064436D01*
X0020504Y0064288D01*
X0020510Y0064140D01*
X0020512Y0063992D01*
X0020510Y0063844D01*
X0020504Y0063696D01*
X0020494Y0063548D01*
X0020480Y0063401D01*
X0020462Y0063254D01*
X0020441Y0063108D01*
X0020415Y0062962D01*
X0020385Y0062817D01*
X0020352Y0062673D01*
X0020314Y0062530D01*
X0020273Y0062388D01*
X0020228Y0062247D01*
X0020180Y0062107D01*
X0020127Y0061968D01*
X0020071Y0061831D01*
X0020011Y0061696D01*
X0019948Y0061562D01*
X0019881Y0061430D01*
X0019810Y0061300D01*
X0019736Y0061172D01*
X0019659Y0061046D01*
X0019578Y0060922D01*
X0019494Y0060800D01*
X0019407Y0060681D01*
X0019316Y0060564D01*
X0019222Y0060449D01*
X0019126Y0060337D01*
X0019026Y0060227D01*
X0018924Y0060121D01*
X0018818Y0060017D01*
X0018710Y0059916D01*
X0018599Y0059818D01*
X0018486Y0059722D01*
X0018370Y0059630D01*
X0018252Y0059541D01*
X0018131Y0059456D01*
X0018008Y0059373D01*
X0017883Y0059294D01*
X0017756Y0059218D01*
X0017627Y0059146D01*
X0017496Y0059077D01*
X0017363Y0059012D01*
X0017228Y0058951D01*
X0017092Y0058893D01*
X0016955Y0058838D01*
X0016816Y0058788D01*
X0016675Y0058741D01*
X0016534Y0058698D01*
X0016391Y0058658D01*
X0016247Y0058623D01*
X0016103Y0058591D01*
X0015957Y0058564D01*
X0015811Y0058540D01*
X0015664Y0058520D01*
X0015517Y0058504D01*
X0015370Y0058492D01*
X0015222Y0058484D01*
X0015074Y0058480D01*
X0014926Y0058480D01*
X0014778Y0058484D01*
X0014630Y0058492D01*
X0014483Y0058504D01*
X0014336Y0058520D01*
X0014189Y0058540D01*
X0014043Y0058564D01*
X0013897Y0058591D01*
X0013753Y0058623D01*
X0013609Y0058658D01*
X0013466Y0058698D01*
X0013325Y0058741D01*
X0013184Y0058788D01*
X0013045Y0058838D01*
X0012908Y0058893D01*
X0012772Y0058951D01*
X0012637Y0059012D01*
X0012504Y0059077D01*
X0012373Y0059146D01*
X0012244Y0059218D01*
X0012117Y0059294D01*
X0011992Y0059373D01*
X0011869Y0059456D01*
X0011748Y0059541D01*
X0011630Y0059630D01*
X0011514Y0059722D01*
X0011401Y0059818D01*
X0011290Y0059916D01*
X0011182Y0060017D01*
X0011076Y0060121D01*
X0010974Y0060227D01*
X0010874Y0060337D01*
X0010778Y0060449D01*
X0010684Y0060564D01*
X0010593Y0060681D01*
X0010506Y0060800D01*
X0010422Y0060922D01*
X0010341Y0061046D01*
X0010264Y0061172D01*
X0010190Y0061300D01*
X0010119Y0061430D01*
X0010052Y0061562D01*
X0009989Y0061696D01*
X0009929Y0061831D01*
X0009873Y0061968D01*
X0009820Y0062107D01*
X0009772Y0062247D01*
X0009727Y0062388D01*
X0009686Y0062530D01*
X0009648Y0062673D01*
X0009615Y0062817D01*
X0009585Y0062962D01*
X0009559Y0063108D01*
X0009538Y0063254D01*
X0009520Y0063401D01*
X0009506Y0063548D01*
X0009496Y0063696D01*
X0009490Y0063844D01*
X0009488Y0063992D01*
X0025236Y0063992D02*
X0025238Y0064140D01*
X0025244Y0064288D01*
X0025254Y0064436D01*
X0025268Y0064583D01*
X0025286Y0064730D01*
X0025307Y0064876D01*
X0025333Y0065022D01*
X0025363Y0065167D01*
X0025396Y0065311D01*
X0025434Y0065454D01*
X0025475Y0065596D01*
X0025520Y0065737D01*
X0025568Y0065877D01*
X0025621Y0066016D01*
X0025677Y0066153D01*
X0025737Y0066288D01*
X0025800Y0066422D01*
X0025867Y0066554D01*
X0025938Y0066684D01*
X0026012Y0066812D01*
X0026089Y0066938D01*
X0026170Y0067062D01*
X0026254Y0067184D01*
X0026341Y0067303D01*
X0026432Y0067420D01*
X0026526Y0067535D01*
X0026622Y0067647D01*
X0026722Y0067757D01*
X0026824Y0067863D01*
X0026930Y0067967D01*
X0027038Y0068068D01*
X0027149Y0068166D01*
X0027262Y0068262D01*
X0027378Y0068354D01*
X0027496Y0068443D01*
X0027617Y0068528D01*
X0027740Y0068611D01*
X0027865Y0068690D01*
X0027992Y0068766D01*
X0028121Y0068838D01*
X0028252Y0068907D01*
X0028385Y0068972D01*
X0028520Y0069033D01*
X0028656Y0069091D01*
X0028793Y0069146D01*
X0028932Y0069196D01*
X0029073Y0069243D01*
X0029214Y0069286D01*
X0029357Y0069326D01*
X0029501Y0069361D01*
X0029645Y0069393D01*
X0029791Y0069420D01*
X0029937Y0069444D01*
X0030084Y0069464D01*
X0030231Y0069480D01*
X0030378Y0069492D01*
X0030526Y0069500D01*
X0030674Y0069504D01*
X0030822Y0069504D01*
X0030970Y0069500D01*
X0031118Y0069492D01*
X0031265Y0069480D01*
X0031412Y0069464D01*
X0031559Y0069444D01*
X0031705Y0069420D01*
X0031851Y0069393D01*
X0031995Y0069361D01*
X0032139Y0069326D01*
X0032282Y0069286D01*
X0032423Y0069243D01*
X0032564Y0069196D01*
X0032703Y0069146D01*
X0032840Y0069091D01*
X0032976Y0069033D01*
X0033111Y0068972D01*
X0033244Y0068907D01*
X0033375Y0068838D01*
X0033504Y0068766D01*
X0033631Y0068690D01*
X0033756Y0068611D01*
X0033879Y0068528D01*
X0034000Y0068443D01*
X0034118Y0068354D01*
X0034234Y0068262D01*
X0034347Y0068166D01*
X0034458Y0068068D01*
X0034566Y0067967D01*
X0034672Y0067863D01*
X0034774Y0067757D01*
X0034874Y0067647D01*
X0034970Y0067535D01*
X0035064Y0067420D01*
X0035155Y0067303D01*
X0035242Y0067184D01*
X0035326Y0067062D01*
X0035407Y0066938D01*
X0035484Y0066812D01*
X0035558Y0066684D01*
X0035629Y0066554D01*
X0035696Y0066422D01*
X0035759Y0066288D01*
X0035819Y0066153D01*
X0035875Y0066016D01*
X0035928Y0065877D01*
X0035976Y0065737D01*
X0036021Y0065596D01*
X0036062Y0065454D01*
X0036100Y0065311D01*
X0036133Y0065167D01*
X0036163Y0065022D01*
X0036189Y0064876D01*
X0036210Y0064730D01*
X0036228Y0064583D01*
X0036242Y0064436D01*
X0036252Y0064288D01*
X0036258Y0064140D01*
X0036260Y0063992D01*
X0036258Y0063844D01*
X0036252Y0063696D01*
X0036242Y0063548D01*
X0036228Y0063401D01*
X0036210Y0063254D01*
X0036189Y0063108D01*
X0036163Y0062962D01*
X0036133Y0062817D01*
X0036100Y0062673D01*
X0036062Y0062530D01*
X0036021Y0062388D01*
X0035976Y0062247D01*
X0035928Y0062107D01*
X0035875Y0061968D01*
X0035819Y0061831D01*
X0035759Y0061696D01*
X0035696Y0061562D01*
X0035629Y0061430D01*
X0035558Y0061300D01*
X0035484Y0061172D01*
X0035407Y0061046D01*
X0035326Y0060922D01*
X0035242Y0060800D01*
X0035155Y0060681D01*
X0035064Y0060564D01*
X0034970Y0060449D01*
X0034874Y0060337D01*
X0034774Y0060227D01*
X0034672Y0060121D01*
X0034566Y0060017D01*
X0034458Y0059916D01*
X0034347Y0059818D01*
X0034234Y0059722D01*
X0034118Y0059630D01*
X0034000Y0059541D01*
X0033879Y0059456D01*
X0033756Y0059373D01*
X0033631Y0059294D01*
X0033504Y0059218D01*
X0033375Y0059146D01*
X0033244Y0059077D01*
X0033111Y0059012D01*
X0032976Y0058951D01*
X0032840Y0058893D01*
X0032703Y0058838D01*
X0032564Y0058788D01*
X0032423Y0058741D01*
X0032282Y0058698D01*
X0032139Y0058658D01*
X0031995Y0058623D01*
X0031851Y0058591D01*
X0031705Y0058564D01*
X0031559Y0058540D01*
X0031412Y0058520D01*
X0031265Y0058504D01*
X0031118Y0058492D01*
X0030970Y0058484D01*
X0030822Y0058480D01*
X0030674Y0058480D01*
X0030526Y0058484D01*
X0030378Y0058492D01*
X0030231Y0058504D01*
X0030084Y0058520D01*
X0029937Y0058540D01*
X0029791Y0058564D01*
X0029645Y0058591D01*
X0029501Y0058623D01*
X0029357Y0058658D01*
X0029214Y0058698D01*
X0029073Y0058741D01*
X0028932Y0058788D01*
X0028793Y0058838D01*
X0028656Y0058893D01*
X0028520Y0058951D01*
X0028385Y0059012D01*
X0028252Y0059077D01*
X0028121Y0059146D01*
X0027992Y0059218D01*
X0027865Y0059294D01*
X0027740Y0059373D01*
X0027617Y0059456D01*
X0027496Y0059541D01*
X0027378Y0059630D01*
X0027262Y0059722D01*
X0027149Y0059818D01*
X0027038Y0059916D01*
X0026930Y0060017D01*
X0026824Y0060121D01*
X0026722Y0060227D01*
X0026622Y0060337D01*
X0026526Y0060449D01*
X0026432Y0060564D01*
X0026341Y0060681D01*
X0026254Y0060800D01*
X0026170Y0060922D01*
X0026089Y0061046D01*
X0026012Y0061172D01*
X0025938Y0061300D01*
X0025867Y0061430D01*
X0025800Y0061562D01*
X0025737Y0061696D01*
X0025677Y0061831D01*
X0025621Y0061968D01*
X0025568Y0062107D01*
X0025520Y0062247D01*
X0025475Y0062388D01*
X0025434Y0062530D01*
X0025396Y0062673D01*
X0025363Y0062817D01*
X0025333Y0062962D01*
X0025307Y0063108D01*
X0025286Y0063254D01*
X0025268Y0063401D01*
X0025254Y0063548D01*
X0025244Y0063696D01*
X0025238Y0063844D01*
X0025236Y0063992D01*
X0040984Y0063992D02*
X0040986Y0064140D01*
X0040992Y0064288D01*
X0041002Y0064436D01*
X0041016Y0064583D01*
X0041034Y0064730D01*
X0041055Y0064876D01*
X0041081Y0065022D01*
X0041111Y0065167D01*
X0041144Y0065311D01*
X0041182Y0065454D01*
X0041223Y0065596D01*
X0041268Y0065737D01*
X0041316Y0065877D01*
X0041369Y0066016D01*
X0041425Y0066153D01*
X0041485Y0066288D01*
X0041548Y0066422D01*
X0041615Y0066554D01*
X0041686Y0066684D01*
X0041760Y0066812D01*
X0041837Y0066938D01*
X0041918Y0067062D01*
X0042002Y0067184D01*
X0042089Y0067303D01*
X0042180Y0067420D01*
X0042274Y0067535D01*
X0042370Y0067647D01*
X0042470Y0067757D01*
X0042572Y0067863D01*
X0042678Y0067967D01*
X0042786Y0068068D01*
X0042897Y0068166D01*
X0043010Y0068262D01*
X0043126Y0068354D01*
X0043244Y0068443D01*
X0043365Y0068528D01*
X0043488Y0068611D01*
X0043613Y0068690D01*
X0043740Y0068766D01*
X0043869Y0068838D01*
X0044000Y0068907D01*
X0044133Y0068972D01*
X0044268Y0069033D01*
X0044404Y0069091D01*
X0044541Y0069146D01*
X0044680Y0069196D01*
X0044821Y0069243D01*
X0044962Y0069286D01*
X0045105Y0069326D01*
X0045249Y0069361D01*
X0045393Y0069393D01*
X0045539Y0069420D01*
X0045685Y0069444D01*
X0045832Y0069464D01*
X0045979Y0069480D01*
X0046126Y0069492D01*
X0046274Y0069500D01*
X0046422Y0069504D01*
X0046570Y0069504D01*
X0046718Y0069500D01*
X0046866Y0069492D01*
X0047013Y0069480D01*
X0047160Y0069464D01*
X0047307Y0069444D01*
X0047453Y0069420D01*
X0047599Y0069393D01*
X0047743Y0069361D01*
X0047887Y0069326D01*
X0048030Y0069286D01*
X0048171Y0069243D01*
X0048312Y0069196D01*
X0048451Y0069146D01*
X0048588Y0069091D01*
X0048724Y0069033D01*
X0048859Y0068972D01*
X0048992Y0068907D01*
X0049123Y0068838D01*
X0049252Y0068766D01*
X0049379Y0068690D01*
X0049504Y0068611D01*
X0049627Y0068528D01*
X0049748Y0068443D01*
X0049866Y0068354D01*
X0049982Y0068262D01*
X0050095Y0068166D01*
X0050206Y0068068D01*
X0050314Y0067967D01*
X0050420Y0067863D01*
X0050522Y0067757D01*
X0050622Y0067647D01*
X0050718Y0067535D01*
X0050812Y0067420D01*
X0050903Y0067303D01*
X0050990Y0067184D01*
X0051074Y0067062D01*
X0051155Y0066938D01*
X0051232Y0066812D01*
X0051306Y0066684D01*
X0051377Y0066554D01*
X0051444Y0066422D01*
X0051507Y0066288D01*
X0051567Y0066153D01*
X0051623Y0066016D01*
X0051676Y0065877D01*
X0051724Y0065737D01*
X0051769Y0065596D01*
X0051810Y0065454D01*
X0051848Y0065311D01*
X0051881Y0065167D01*
X0051911Y0065022D01*
X0051937Y0064876D01*
X0051958Y0064730D01*
X0051976Y0064583D01*
X0051990Y0064436D01*
X0052000Y0064288D01*
X0052006Y0064140D01*
X0052008Y0063992D01*
X0052006Y0063844D01*
X0052000Y0063696D01*
X0051990Y0063548D01*
X0051976Y0063401D01*
X0051958Y0063254D01*
X0051937Y0063108D01*
X0051911Y0062962D01*
X0051881Y0062817D01*
X0051848Y0062673D01*
X0051810Y0062530D01*
X0051769Y0062388D01*
X0051724Y0062247D01*
X0051676Y0062107D01*
X0051623Y0061968D01*
X0051567Y0061831D01*
X0051507Y0061696D01*
X0051444Y0061562D01*
X0051377Y0061430D01*
X0051306Y0061300D01*
X0051232Y0061172D01*
X0051155Y0061046D01*
X0051074Y0060922D01*
X0050990Y0060800D01*
X0050903Y0060681D01*
X0050812Y0060564D01*
X0050718Y0060449D01*
X0050622Y0060337D01*
X0050522Y0060227D01*
X0050420Y0060121D01*
X0050314Y0060017D01*
X0050206Y0059916D01*
X0050095Y0059818D01*
X0049982Y0059722D01*
X0049866Y0059630D01*
X0049748Y0059541D01*
X0049627Y0059456D01*
X0049504Y0059373D01*
X0049379Y0059294D01*
X0049252Y0059218D01*
X0049123Y0059146D01*
X0048992Y0059077D01*
X0048859Y0059012D01*
X0048724Y0058951D01*
X0048588Y0058893D01*
X0048451Y0058838D01*
X0048312Y0058788D01*
X0048171Y0058741D01*
X0048030Y0058698D01*
X0047887Y0058658D01*
X0047743Y0058623D01*
X0047599Y0058591D01*
X0047453Y0058564D01*
X0047307Y0058540D01*
X0047160Y0058520D01*
X0047013Y0058504D01*
X0046866Y0058492D01*
X0046718Y0058484D01*
X0046570Y0058480D01*
X0046422Y0058480D01*
X0046274Y0058484D01*
X0046126Y0058492D01*
X0045979Y0058504D01*
X0045832Y0058520D01*
X0045685Y0058540D01*
X0045539Y0058564D01*
X0045393Y0058591D01*
X0045249Y0058623D01*
X0045105Y0058658D01*
X0044962Y0058698D01*
X0044821Y0058741D01*
X0044680Y0058788D01*
X0044541Y0058838D01*
X0044404Y0058893D01*
X0044268Y0058951D01*
X0044133Y0059012D01*
X0044000Y0059077D01*
X0043869Y0059146D01*
X0043740Y0059218D01*
X0043613Y0059294D01*
X0043488Y0059373D01*
X0043365Y0059456D01*
X0043244Y0059541D01*
X0043126Y0059630D01*
X0043010Y0059722D01*
X0042897Y0059818D01*
X0042786Y0059916D01*
X0042678Y0060017D01*
X0042572Y0060121D01*
X0042470Y0060227D01*
X0042370Y0060337D01*
X0042274Y0060449D01*
X0042180Y0060564D01*
X0042089Y0060681D01*
X0042002Y0060800D01*
X0041918Y0060922D01*
X0041837Y0061046D01*
X0041760Y0061172D01*
X0041686Y0061300D01*
X0041615Y0061430D01*
X0041548Y0061562D01*
X0041485Y0061696D01*
X0041425Y0061831D01*
X0041369Y0061968D01*
X0041316Y0062107D01*
X0041268Y0062247D01*
X0041223Y0062388D01*
X0041182Y0062530D01*
X0041144Y0062673D01*
X0041111Y0062817D01*
X0041081Y0062962D01*
X0041055Y0063108D01*
X0041034Y0063254D01*
X0041016Y0063401D01*
X0041002Y0063548D01*
X0040992Y0063696D01*
X0040986Y0063844D01*
X0040984Y0063992D01*
X0056732Y0063992D02*
X0056734Y0064140D01*
X0056740Y0064288D01*
X0056750Y0064436D01*
X0056764Y0064583D01*
X0056782Y0064730D01*
X0056803Y0064876D01*
X0056829Y0065022D01*
X0056859Y0065167D01*
X0056892Y0065311D01*
X0056930Y0065454D01*
X0056971Y0065596D01*
X0057016Y0065737D01*
X0057064Y0065877D01*
X0057117Y0066016D01*
X0057173Y0066153D01*
X0057233Y0066288D01*
X0057296Y0066422D01*
X0057363Y0066554D01*
X0057434Y0066684D01*
X0057508Y0066812D01*
X0057585Y0066938D01*
X0057666Y0067062D01*
X0057750Y0067184D01*
X0057837Y0067303D01*
X0057928Y0067420D01*
X0058022Y0067535D01*
X0058118Y0067647D01*
X0058218Y0067757D01*
X0058320Y0067863D01*
X0058426Y0067967D01*
X0058534Y0068068D01*
X0058645Y0068166D01*
X0058758Y0068262D01*
X0058874Y0068354D01*
X0058992Y0068443D01*
X0059113Y0068528D01*
X0059236Y0068611D01*
X0059361Y0068690D01*
X0059488Y0068766D01*
X0059617Y0068838D01*
X0059748Y0068907D01*
X0059881Y0068972D01*
X0060016Y0069033D01*
X0060152Y0069091D01*
X0060289Y0069146D01*
X0060428Y0069196D01*
X0060569Y0069243D01*
X0060710Y0069286D01*
X0060853Y0069326D01*
X0060997Y0069361D01*
X0061141Y0069393D01*
X0061287Y0069420D01*
X0061433Y0069444D01*
X0061580Y0069464D01*
X0061727Y0069480D01*
X0061874Y0069492D01*
X0062022Y0069500D01*
X0062170Y0069504D01*
X0062318Y0069504D01*
X0062466Y0069500D01*
X0062614Y0069492D01*
X0062761Y0069480D01*
X0062908Y0069464D01*
X0063055Y0069444D01*
X0063201Y0069420D01*
X0063347Y0069393D01*
X0063491Y0069361D01*
X0063635Y0069326D01*
X0063778Y0069286D01*
X0063919Y0069243D01*
X0064060Y0069196D01*
X0064199Y0069146D01*
X0064336Y0069091D01*
X0064472Y0069033D01*
X0064607Y0068972D01*
X0064740Y0068907D01*
X0064871Y0068838D01*
X0065000Y0068766D01*
X0065127Y0068690D01*
X0065252Y0068611D01*
X0065375Y0068528D01*
X0065496Y0068443D01*
X0065614Y0068354D01*
X0065730Y0068262D01*
X0065843Y0068166D01*
X0065954Y0068068D01*
X0066062Y0067967D01*
X0066168Y0067863D01*
X0066270Y0067757D01*
X0066370Y0067647D01*
X0066466Y0067535D01*
X0066560Y0067420D01*
X0066651Y0067303D01*
X0066738Y0067184D01*
X0066822Y0067062D01*
X0066903Y0066938D01*
X0066980Y0066812D01*
X0067054Y0066684D01*
X0067125Y0066554D01*
X0067192Y0066422D01*
X0067255Y0066288D01*
X0067315Y0066153D01*
X0067371Y0066016D01*
X0067424Y0065877D01*
X0067472Y0065737D01*
X0067517Y0065596D01*
X0067558Y0065454D01*
X0067596Y0065311D01*
X0067629Y0065167D01*
X0067659Y0065022D01*
X0067685Y0064876D01*
X0067706Y0064730D01*
X0067724Y0064583D01*
X0067738Y0064436D01*
X0067748Y0064288D01*
X0067754Y0064140D01*
X0067756Y0063992D01*
X0067754Y0063844D01*
X0067748Y0063696D01*
X0067738Y0063548D01*
X0067724Y0063401D01*
X0067706Y0063254D01*
X0067685Y0063108D01*
X0067659Y0062962D01*
X0067629Y0062817D01*
X0067596Y0062673D01*
X0067558Y0062530D01*
X0067517Y0062388D01*
X0067472Y0062247D01*
X0067424Y0062107D01*
X0067371Y0061968D01*
X0067315Y0061831D01*
X0067255Y0061696D01*
X0067192Y0061562D01*
X0067125Y0061430D01*
X0067054Y0061300D01*
X0066980Y0061172D01*
X0066903Y0061046D01*
X0066822Y0060922D01*
X0066738Y0060800D01*
X0066651Y0060681D01*
X0066560Y0060564D01*
X0066466Y0060449D01*
X0066370Y0060337D01*
X0066270Y0060227D01*
X0066168Y0060121D01*
X0066062Y0060017D01*
X0065954Y0059916D01*
X0065843Y0059818D01*
X0065730Y0059722D01*
X0065614Y0059630D01*
X0065496Y0059541D01*
X0065375Y0059456D01*
X0065252Y0059373D01*
X0065127Y0059294D01*
X0065000Y0059218D01*
X0064871Y0059146D01*
X0064740Y0059077D01*
X0064607Y0059012D01*
X0064472Y0058951D01*
X0064336Y0058893D01*
X0064199Y0058838D01*
X0064060Y0058788D01*
X0063919Y0058741D01*
X0063778Y0058698D01*
X0063635Y0058658D01*
X0063491Y0058623D01*
X0063347Y0058591D01*
X0063201Y0058564D01*
X0063055Y0058540D01*
X0062908Y0058520D01*
X0062761Y0058504D01*
X0062614Y0058492D01*
X0062466Y0058484D01*
X0062318Y0058480D01*
X0062170Y0058480D01*
X0062022Y0058484D01*
X0061874Y0058492D01*
X0061727Y0058504D01*
X0061580Y0058520D01*
X0061433Y0058540D01*
X0061287Y0058564D01*
X0061141Y0058591D01*
X0060997Y0058623D01*
X0060853Y0058658D01*
X0060710Y0058698D01*
X0060569Y0058741D01*
X0060428Y0058788D01*
X0060289Y0058838D01*
X0060152Y0058893D01*
X0060016Y0058951D01*
X0059881Y0059012D01*
X0059748Y0059077D01*
X0059617Y0059146D01*
X0059488Y0059218D01*
X0059361Y0059294D01*
X0059236Y0059373D01*
X0059113Y0059456D01*
X0058992Y0059541D01*
X0058874Y0059630D01*
X0058758Y0059722D01*
X0058645Y0059818D01*
X0058534Y0059916D01*
X0058426Y0060017D01*
X0058320Y0060121D01*
X0058218Y0060227D01*
X0058118Y0060337D01*
X0058022Y0060449D01*
X0057928Y0060564D01*
X0057837Y0060681D01*
X0057750Y0060800D01*
X0057666Y0060922D01*
X0057585Y0061046D01*
X0057508Y0061172D01*
X0057434Y0061300D01*
X0057363Y0061430D01*
X0057296Y0061562D01*
X0057233Y0061696D01*
X0057173Y0061831D01*
X0057117Y0061968D01*
X0057064Y0062107D01*
X0057016Y0062247D01*
X0056971Y0062388D01*
X0056930Y0062530D01*
X0056892Y0062673D01*
X0056859Y0062817D01*
X0056829Y0062962D01*
X0056803Y0063108D01*
X0056782Y0063254D01*
X0056764Y0063401D01*
X0056750Y0063548D01*
X0056740Y0063696D01*
X0056734Y0063844D01*
X0056732Y0063992D01*
X0072480Y0063992D02*
X0072482Y0064140D01*
X0072488Y0064288D01*
X0072498Y0064436D01*
X0072512Y0064583D01*
X0072530Y0064730D01*
X0072551Y0064876D01*
X0072577Y0065022D01*
X0072607Y0065167D01*
X0072640Y0065311D01*
X0072678Y0065454D01*
X0072719Y0065596D01*
X0072764Y0065737D01*
X0072812Y0065877D01*
X0072865Y0066016D01*
X0072921Y0066153D01*
X0072981Y0066288D01*
X0073044Y0066422D01*
X0073111Y0066554D01*
X0073182Y0066684D01*
X0073256Y0066812D01*
X0073333Y0066938D01*
X0073414Y0067062D01*
X0073498Y0067184D01*
X0073585Y0067303D01*
X0073676Y0067420D01*
X0073770Y0067535D01*
X0073866Y0067647D01*
X0073966Y0067757D01*
X0074068Y0067863D01*
X0074174Y0067967D01*
X0074282Y0068068D01*
X0074393Y0068166D01*
X0074506Y0068262D01*
X0074622Y0068354D01*
X0074740Y0068443D01*
X0074861Y0068528D01*
X0074984Y0068611D01*
X0075109Y0068690D01*
X0075236Y0068766D01*
X0075365Y0068838D01*
X0075496Y0068907D01*
X0075629Y0068972D01*
X0075764Y0069033D01*
X0075900Y0069091D01*
X0076037Y0069146D01*
X0076176Y0069196D01*
X0076317Y0069243D01*
X0076458Y0069286D01*
X0076601Y0069326D01*
X0076745Y0069361D01*
X0076889Y0069393D01*
X0077035Y0069420D01*
X0077181Y0069444D01*
X0077328Y0069464D01*
X0077475Y0069480D01*
X0077622Y0069492D01*
X0077770Y0069500D01*
X0077918Y0069504D01*
X0078066Y0069504D01*
X0078214Y0069500D01*
X0078362Y0069492D01*
X0078509Y0069480D01*
X0078656Y0069464D01*
X0078803Y0069444D01*
X0078949Y0069420D01*
X0079095Y0069393D01*
X0079239Y0069361D01*
X0079383Y0069326D01*
X0079526Y0069286D01*
X0079667Y0069243D01*
X0079808Y0069196D01*
X0079947Y0069146D01*
X0080084Y0069091D01*
X0080220Y0069033D01*
X0080355Y0068972D01*
X0080488Y0068907D01*
X0080619Y0068838D01*
X0080748Y0068766D01*
X0080875Y0068690D01*
X0081000Y0068611D01*
X0081123Y0068528D01*
X0081244Y0068443D01*
X0081362Y0068354D01*
X0081478Y0068262D01*
X0081591Y0068166D01*
X0081702Y0068068D01*
X0081810Y0067967D01*
X0081916Y0067863D01*
X0082018Y0067757D01*
X0082118Y0067647D01*
X0082214Y0067535D01*
X0082308Y0067420D01*
X0082399Y0067303D01*
X0082486Y0067184D01*
X0082570Y0067062D01*
X0082651Y0066938D01*
X0082728Y0066812D01*
X0082802Y0066684D01*
X0082873Y0066554D01*
X0082940Y0066422D01*
X0083003Y0066288D01*
X0083063Y0066153D01*
X0083119Y0066016D01*
X0083172Y0065877D01*
X0083220Y0065737D01*
X0083265Y0065596D01*
X0083306Y0065454D01*
X0083344Y0065311D01*
X0083377Y0065167D01*
X0083407Y0065022D01*
X0083433Y0064876D01*
X0083454Y0064730D01*
X0083472Y0064583D01*
X0083486Y0064436D01*
X0083496Y0064288D01*
X0083502Y0064140D01*
X0083504Y0063992D01*
X0083502Y0063844D01*
X0083496Y0063696D01*
X0083486Y0063548D01*
X0083472Y0063401D01*
X0083454Y0063254D01*
X0083433Y0063108D01*
X0083407Y0062962D01*
X0083377Y0062817D01*
X0083344Y0062673D01*
X0083306Y0062530D01*
X0083265Y0062388D01*
X0083220Y0062247D01*
X0083172Y0062107D01*
X0083119Y0061968D01*
X0083063Y0061831D01*
X0083003Y0061696D01*
X0082940Y0061562D01*
X0082873Y0061430D01*
X0082802Y0061300D01*
X0082728Y0061172D01*
X0082651Y0061046D01*
X0082570Y0060922D01*
X0082486Y0060800D01*
X0082399Y0060681D01*
X0082308Y0060564D01*
X0082214Y0060449D01*
X0082118Y0060337D01*
X0082018Y0060227D01*
X0081916Y0060121D01*
X0081810Y0060017D01*
X0081702Y0059916D01*
X0081591Y0059818D01*
X0081478Y0059722D01*
X0081362Y0059630D01*
X0081244Y0059541D01*
X0081123Y0059456D01*
X0081000Y0059373D01*
X0080875Y0059294D01*
X0080748Y0059218D01*
X0080619Y0059146D01*
X0080488Y0059077D01*
X0080355Y0059012D01*
X0080220Y0058951D01*
X0080084Y0058893D01*
X0079947Y0058838D01*
X0079808Y0058788D01*
X0079667Y0058741D01*
X0079526Y0058698D01*
X0079383Y0058658D01*
X0079239Y0058623D01*
X0079095Y0058591D01*
X0078949Y0058564D01*
X0078803Y0058540D01*
X0078656Y0058520D01*
X0078509Y0058504D01*
X0078362Y0058492D01*
X0078214Y0058484D01*
X0078066Y0058480D01*
X0077918Y0058480D01*
X0077770Y0058484D01*
X0077622Y0058492D01*
X0077475Y0058504D01*
X0077328Y0058520D01*
X0077181Y0058540D01*
X0077035Y0058564D01*
X0076889Y0058591D01*
X0076745Y0058623D01*
X0076601Y0058658D01*
X0076458Y0058698D01*
X0076317Y0058741D01*
X0076176Y0058788D01*
X0076037Y0058838D01*
X0075900Y0058893D01*
X0075764Y0058951D01*
X0075629Y0059012D01*
X0075496Y0059077D01*
X0075365Y0059146D01*
X0075236Y0059218D01*
X0075109Y0059294D01*
X0074984Y0059373D01*
X0074861Y0059456D01*
X0074740Y0059541D01*
X0074622Y0059630D01*
X0074506Y0059722D01*
X0074393Y0059818D01*
X0074282Y0059916D01*
X0074174Y0060017D01*
X0074068Y0060121D01*
X0073966Y0060227D01*
X0073866Y0060337D01*
X0073770Y0060449D01*
X0073676Y0060564D01*
X0073585Y0060681D01*
X0073498Y0060800D01*
X0073414Y0060922D01*
X0073333Y0061046D01*
X0073256Y0061172D01*
X0073182Y0061300D01*
X0073111Y0061430D01*
X0073044Y0061562D01*
X0072981Y0061696D01*
X0072921Y0061831D01*
X0072865Y0061968D01*
X0072812Y0062107D01*
X0072764Y0062247D01*
X0072719Y0062388D01*
X0072678Y0062530D01*
X0072640Y0062673D01*
X0072607Y0062817D01*
X0072577Y0062962D01*
X0072551Y0063108D01*
X0072530Y0063254D01*
X0072512Y0063401D01*
X0072498Y0063548D01*
X0072488Y0063696D01*
X0072482Y0063844D01*
X0072480Y0063992D01*
X0088228Y0063992D02*
X0088230Y0064140D01*
X0088236Y0064288D01*
X0088246Y0064436D01*
X0088260Y0064583D01*
X0088278Y0064730D01*
X0088299Y0064876D01*
X0088325Y0065022D01*
X0088355Y0065167D01*
X0088388Y0065311D01*
X0088426Y0065454D01*
X0088467Y0065596D01*
X0088512Y0065737D01*
X0088560Y0065877D01*
X0088613Y0066016D01*
X0088669Y0066153D01*
X0088729Y0066288D01*
X0088792Y0066422D01*
X0088859Y0066554D01*
X0088930Y0066684D01*
X0089004Y0066812D01*
X0089081Y0066938D01*
X0089162Y0067062D01*
X0089246Y0067184D01*
X0089333Y0067303D01*
X0089424Y0067420D01*
X0089518Y0067535D01*
X0089614Y0067647D01*
X0089714Y0067757D01*
X0089816Y0067863D01*
X0089922Y0067967D01*
X0090030Y0068068D01*
X0090141Y0068166D01*
X0090254Y0068262D01*
X0090370Y0068354D01*
X0090488Y0068443D01*
X0090609Y0068528D01*
X0090732Y0068611D01*
X0090857Y0068690D01*
X0090984Y0068766D01*
X0091113Y0068838D01*
X0091244Y0068907D01*
X0091377Y0068972D01*
X0091512Y0069033D01*
X0091648Y0069091D01*
X0091785Y0069146D01*
X0091924Y0069196D01*
X0092065Y0069243D01*
X0092206Y0069286D01*
X0092349Y0069326D01*
X0092493Y0069361D01*
X0092637Y0069393D01*
X0092783Y0069420D01*
X0092929Y0069444D01*
X0093076Y0069464D01*
X0093223Y0069480D01*
X0093370Y0069492D01*
X0093518Y0069500D01*
X0093666Y0069504D01*
X0093814Y0069504D01*
X0093962Y0069500D01*
X0094110Y0069492D01*
X0094257Y0069480D01*
X0094404Y0069464D01*
X0094551Y0069444D01*
X0094697Y0069420D01*
X0094843Y0069393D01*
X0094987Y0069361D01*
X0095131Y0069326D01*
X0095274Y0069286D01*
X0095415Y0069243D01*
X0095556Y0069196D01*
X0095695Y0069146D01*
X0095832Y0069091D01*
X0095968Y0069033D01*
X0096103Y0068972D01*
X0096236Y0068907D01*
X0096367Y0068838D01*
X0096496Y0068766D01*
X0096623Y0068690D01*
X0096748Y0068611D01*
X0096871Y0068528D01*
X0096992Y0068443D01*
X0097110Y0068354D01*
X0097226Y0068262D01*
X0097339Y0068166D01*
X0097450Y0068068D01*
X0097558Y0067967D01*
X0097664Y0067863D01*
X0097766Y0067757D01*
X0097866Y0067647D01*
X0097962Y0067535D01*
X0098056Y0067420D01*
X0098147Y0067303D01*
X0098234Y0067184D01*
X0098318Y0067062D01*
X0098399Y0066938D01*
X0098476Y0066812D01*
X0098550Y0066684D01*
X0098621Y0066554D01*
X0098688Y0066422D01*
X0098751Y0066288D01*
X0098811Y0066153D01*
X0098867Y0066016D01*
X0098920Y0065877D01*
X0098968Y0065737D01*
X0099013Y0065596D01*
X0099054Y0065454D01*
X0099092Y0065311D01*
X0099125Y0065167D01*
X0099155Y0065022D01*
X0099181Y0064876D01*
X0099202Y0064730D01*
X0099220Y0064583D01*
X0099234Y0064436D01*
X0099244Y0064288D01*
X0099250Y0064140D01*
X0099252Y0063992D01*
X0099250Y0063844D01*
X0099244Y0063696D01*
X0099234Y0063548D01*
X0099220Y0063401D01*
X0099202Y0063254D01*
X0099181Y0063108D01*
X0099155Y0062962D01*
X0099125Y0062817D01*
X0099092Y0062673D01*
X0099054Y0062530D01*
X0099013Y0062388D01*
X0098968Y0062247D01*
X0098920Y0062107D01*
X0098867Y0061968D01*
X0098811Y0061831D01*
X0098751Y0061696D01*
X0098688Y0061562D01*
X0098621Y0061430D01*
X0098550Y0061300D01*
X0098476Y0061172D01*
X0098399Y0061046D01*
X0098318Y0060922D01*
X0098234Y0060800D01*
X0098147Y0060681D01*
X0098056Y0060564D01*
X0097962Y0060449D01*
X0097866Y0060337D01*
X0097766Y0060227D01*
X0097664Y0060121D01*
X0097558Y0060017D01*
X0097450Y0059916D01*
X0097339Y0059818D01*
X0097226Y0059722D01*
X0097110Y0059630D01*
X0096992Y0059541D01*
X0096871Y0059456D01*
X0096748Y0059373D01*
X0096623Y0059294D01*
X0096496Y0059218D01*
X0096367Y0059146D01*
X0096236Y0059077D01*
X0096103Y0059012D01*
X0095968Y0058951D01*
X0095832Y0058893D01*
X0095695Y0058838D01*
X0095556Y0058788D01*
X0095415Y0058741D01*
X0095274Y0058698D01*
X0095131Y0058658D01*
X0094987Y0058623D01*
X0094843Y0058591D01*
X0094697Y0058564D01*
X0094551Y0058540D01*
X0094404Y0058520D01*
X0094257Y0058504D01*
X0094110Y0058492D01*
X0093962Y0058484D01*
X0093814Y0058480D01*
X0093666Y0058480D01*
X0093518Y0058484D01*
X0093370Y0058492D01*
X0093223Y0058504D01*
X0093076Y0058520D01*
X0092929Y0058540D01*
X0092783Y0058564D01*
X0092637Y0058591D01*
X0092493Y0058623D01*
X0092349Y0058658D01*
X0092206Y0058698D01*
X0092065Y0058741D01*
X0091924Y0058788D01*
X0091785Y0058838D01*
X0091648Y0058893D01*
X0091512Y0058951D01*
X0091377Y0059012D01*
X0091244Y0059077D01*
X0091113Y0059146D01*
X0090984Y0059218D01*
X0090857Y0059294D01*
X0090732Y0059373D01*
X0090609Y0059456D01*
X0090488Y0059541D01*
X0090370Y0059630D01*
X0090254Y0059722D01*
X0090141Y0059818D01*
X0090030Y0059916D01*
X0089922Y0060017D01*
X0089816Y0060121D01*
X0089714Y0060227D01*
X0089614Y0060337D01*
X0089518Y0060449D01*
X0089424Y0060564D01*
X0089333Y0060681D01*
X0089246Y0060800D01*
X0089162Y0060922D01*
X0089081Y0061046D01*
X0089004Y0061172D01*
X0088930Y0061300D01*
X0088859Y0061430D01*
X0088792Y0061562D01*
X0088729Y0061696D01*
X0088669Y0061831D01*
X0088613Y0061968D01*
X0088560Y0062107D01*
X0088512Y0062247D01*
X0088467Y0062388D01*
X0088426Y0062530D01*
X0088388Y0062673D01*
X0088355Y0062817D01*
X0088325Y0062962D01*
X0088299Y0063108D01*
X0088278Y0063254D01*
X0088260Y0063401D01*
X0088246Y0063548D01*
X0088236Y0063696D01*
X0088230Y0063844D01*
X0088228Y0063992D01*
X0103976Y0063992D02*
X0103978Y0064140D01*
X0103984Y0064288D01*
X0103994Y0064436D01*
X0104008Y0064583D01*
X0104026Y0064730D01*
X0104047Y0064876D01*
X0104073Y0065022D01*
X0104103Y0065167D01*
X0104136Y0065311D01*
X0104174Y0065454D01*
X0104215Y0065596D01*
X0104260Y0065737D01*
X0104308Y0065877D01*
X0104361Y0066016D01*
X0104417Y0066153D01*
X0104477Y0066288D01*
X0104540Y0066422D01*
X0104607Y0066554D01*
X0104678Y0066684D01*
X0104752Y0066812D01*
X0104829Y0066938D01*
X0104910Y0067062D01*
X0104994Y0067184D01*
X0105081Y0067303D01*
X0105172Y0067420D01*
X0105266Y0067535D01*
X0105362Y0067647D01*
X0105462Y0067757D01*
X0105564Y0067863D01*
X0105670Y0067967D01*
X0105778Y0068068D01*
X0105889Y0068166D01*
X0106002Y0068262D01*
X0106118Y0068354D01*
X0106236Y0068443D01*
X0106357Y0068528D01*
X0106480Y0068611D01*
X0106605Y0068690D01*
X0106732Y0068766D01*
X0106861Y0068838D01*
X0106992Y0068907D01*
X0107125Y0068972D01*
X0107260Y0069033D01*
X0107396Y0069091D01*
X0107533Y0069146D01*
X0107672Y0069196D01*
X0107813Y0069243D01*
X0107954Y0069286D01*
X0108097Y0069326D01*
X0108241Y0069361D01*
X0108385Y0069393D01*
X0108531Y0069420D01*
X0108677Y0069444D01*
X0108824Y0069464D01*
X0108971Y0069480D01*
X0109118Y0069492D01*
X0109266Y0069500D01*
X0109414Y0069504D01*
X0109562Y0069504D01*
X0109710Y0069500D01*
X0109858Y0069492D01*
X0110005Y0069480D01*
X0110152Y0069464D01*
X0110299Y0069444D01*
X0110445Y0069420D01*
X0110591Y0069393D01*
X0110735Y0069361D01*
X0110879Y0069326D01*
X0111022Y0069286D01*
X0111163Y0069243D01*
X0111304Y0069196D01*
X0111443Y0069146D01*
X0111580Y0069091D01*
X0111716Y0069033D01*
X0111851Y0068972D01*
X0111984Y0068907D01*
X0112115Y0068838D01*
X0112244Y0068766D01*
X0112371Y0068690D01*
X0112496Y0068611D01*
X0112619Y0068528D01*
X0112740Y0068443D01*
X0112858Y0068354D01*
X0112974Y0068262D01*
X0113087Y0068166D01*
X0113198Y0068068D01*
X0113306Y0067967D01*
X0113412Y0067863D01*
X0113514Y0067757D01*
X0113614Y0067647D01*
X0113710Y0067535D01*
X0113804Y0067420D01*
X0113895Y0067303D01*
X0113982Y0067184D01*
X0114066Y0067062D01*
X0114147Y0066938D01*
X0114224Y0066812D01*
X0114298Y0066684D01*
X0114369Y0066554D01*
X0114436Y0066422D01*
X0114499Y0066288D01*
X0114559Y0066153D01*
X0114615Y0066016D01*
X0114668Y0065877D01*
X0114716Y0065737D01*
X0114761Y0065596D01*
X0114802Y0065454D01*
X0114840Y0065311D01*
X0114873Y0065167D01*
X0114903Y0065022D01*
X0114929Y0064876D01*
X0114950Y0064730D01*
X0114968Y0064583D01*
X0114982Y0064436D01*
X0114992Y0064288D01*
X0114998Y0064140D01*
X0115000Y0063992D01*
X0114998Y0063844D01*
X0114992Y0063696D01*
X0114982Y0063548D01*
X0114968Y0063401D01*
X0114950Y0063254D01*
X0114929Y0063108D01*
X0114903Y0062962D01*
X0114873Y0062817D01*
X0114840Y0062673D01*
X0114802Y0062530D01*
X0114761Y0062388D01*
X0114716Y0062247D01*
X0114668Y0062107D01*
X0114615Y0061968D01*
X0114559Y0061831D01*
X0114499Y0061696D01*
X0114436Y0061562D01*
X0114369Y0061430D01*
X0114298Y0061300D01*
X0114224Y0061172D01*
X0114147Y0061046D01*
X0114066Y0060922D01*
X0113982Y0060800D01*
X0113895Y0060681D01*
X0113804Y0060564D01*
X0113710Y0060449D01*
X0113614Y0060337D01*
X0113514Y0060227D01*
X0113412Y0060121D01*
X0113306Y0060017D01*
X0113198Y0059916D01*
X0113087Y0059818D01*
X0112974Y0059722D01*
X0112858Y0059630D01*
X0112740Y0059541D01*
X0112619Y0059456D01*
X0112496Y0059373D01*
X0112371Y0059294D01*
X0112244Y0059218D01*
X0112115Y0059146D01*
X0111984Y0059077D01*
X0111851Y0059012D01*
X0111716Y0058951D01*
X0111580Y0058893D01*
X0111443Y0058838D01*
X0111304Y0058788D01*
X0111163Y0058741D01*
X0111022Y0058698D01*
X0110879Y0058658D01*
X0110735Y0058623D01*
X0110591Y0058591D01*
X0110445Y0058564D01*
X0110299Y0058540D01*
X0110152Y0058520D01*
X0110005Y0058504D01*
X0109858Y0058492D01*
X0109710Y0058484D01*
X0109562Y0058480D01*
X0109414Y0058480D01*
X0109266Y0058484D01*
X0109118Y0058492D01*
X0108971Y0058504D01*
X0108824Y0058520D01*
X0108677Y0058540D01*
X0108531Y0058564D01*
X0108385Y0058591D01*
X0108241Y0058623D01*
X0108097Y0058658D01*
X0107954Y0058698D01*
X0107813Y0058741D01*
X0107672Y0058788D01*
X0107533Y0058838D01*
X0107396Y0058893D01*
X0107260Y0058951D01*
X0107125Y0059012D01*
X0106992Y0059077D01*
X0106861Y0059146D01*
X0106732Y0059218D01*
X0106605Y0059294D01*
X0106480Y0059373D01*
X0106357Y0059456D01*
X0106236Y0059541D01*
X0106118Y0059630D01*
X0106002Y0059722D01*
X0105889Y0059818D01*
X0105778Y0059916D01*
X0105670Y0060017D01*
X0105564Y0060121D01*
X0105462Y0060227D01*
X0105362Y0060337D01*
X0105266Y0060449D01*
X0105172Y0060564D01*
X0105081Y0060681D01*
X0104994Y0060800D01*
X0104910Y0060922D01*
X0104829Y0061046D01*
X0104752Y0061172D01*
X0104678Y0061300D01*
X0104607Y0061430D01*
X0104540Y0061562D01*
X0104477Y0061696D01*
X0104417Y0061831D01*
X0104361Y0061968D01*
X0104308Y0062107D01*
X0104260Y0062247D01*
X0104215Y0062388D01*
X0104174Y0062530D01*
X0104136Y0062673D01*
X0104103Y0062817D01*
X0104073Y0062962D01*
X0104047Y0063108D01*
X0104026Y0063254D01*
X0104008Y0063401D01*
X0103994Y0063548D01*
X0103984Y0063696D01*
X0103978Y0063844D01*
X0103976Y0063992D01*
X0119724Y0063992D02*
X0119726Y0064140D01*
X0119732Y0064288D01*
X0119742Y0064436D01*
X0119756Y0064583D01*
X0119774Y0064730D01*
X0119795Y0064876D01*
X0119821Y0065022D01*
X0119851Y0065167D01*
X0119884Y0065311D01*
X0119922Y0065454D01*
X0119963Y0065596D01*
X0120008Y0065737D01*
X0120056Y0065877D01*
X0120109Y0066016D01*
X0120165Y0066153D01*
X0120225Y0066288D01*
X0120288Y0066422D01*
X0120355Y0066554D01*
X0120426Y0066684D01*
X0120500Y0066812D01*
X0120577Y0066938D01*
X0120658Y0067062D01*
X0120742Y0067184D01*
X0120829Y0067303D01*
X0120920Y0067420D01*
X0121014Y0067535D01*
X0121110Y0067647D01*
X0121210Y0067757D01*
X0121312Y0067863D01*
X0121418Y0067967D01*
X0121526Y0068068D01*
X0121637Y0068166D01*
X0121750Y0068262D01*
X0121866Y0068354D01*
X0121984Y0068443D01*
X0122105Y0068528D01*
X0122228Y0068611D01*
X0122353Y0068690D01*
X0122480Y0068766D01*
X0122609Y0068838D01*
X0122740Y0068907D01*
X0122873Y0068972D01*
X0123008Y0069033D01*
X0123144Y0069091D01*
X0123281Y0069146D01*
X0123420Y0069196D01*
X0123561Y0069243D01*
X0123702Y0069286D01*
X0123845Y0069326D01*
X0123989Y0069361D01*
X0124133Y0069393D01*
X0124279Y0069420D01*
X0124425Y0069444D01*
X0124572Y0069464D01*
X0124719Y0069480D01*
X0124866Y0069492D01*
X0125014Y0069500D01*
X0125162Y0069504D01*
X0125310Y0069504D01*
X0125458Y0069500D01*
X0125606Y0069492D01*
X0125753Y0069480D01*
X0125900Y0069464D01*
X0126047Y0069444D01*
X0126193Y0069420D01*
X0126339Y0069393D01*
X0126483Y0069361D01*
X0126627Y0069326D01*
X0126770Y0069286D01*
X0126911Y0069243D01*
X0127052Y0069196D01*
X0127191Y0069146D01*
X0127328Y0069091D01*
X0127464Y0069033D01*
X0127599Y0068972D01*
X0127732Y0068907D01*
X0127863Y0068838D01*
X0127992Y0068766D01*
X0128119Y0068690D01*
X0128244Y0068611D01*
X0128367Y0068528D01*
X0128488Y0068443D01*
X0128606Y0068354D01*
X0128722Y0068262D01*
X0128835Y0068166D01*
X0128946Y0068068D01*
X0129054Y0067967D01*
X0129160Y0067863D01*
X0129262Y0067757D01*
X0129362Y0067647D01*
X0129458Y0067535D01*
X0129552Y0067420D01*
X0129643Y0067303D01*
X0129730Y0067184D01*
X0129814Y0067062D01*
X0129895Y0066938D01*
X0129972Y0066812D01*
X0130046Y0066684D01*
X0130117Y0066554D01*
X0130184Y0066422D01*
X0130247Y0066288D01*
X0130307Y0066153D01*
X0130363Y0066016D01*
X0130416Y0065877D01*
X0130464Y0065737D01*
X0130509Y0065596D01*
X0130550Y0065454D01*
X0130588Y0065311D01*
X0130621Y0065167D01*
X0130651Y0065022D01*
X0130677Y0064876D01*
X0130698Y0064730D01*
X0130716Y0064583D01*
X0130730Y0064436D01*
X0130740Y0064288D01*
X0130746Y0064140D01*
X0130748Y0063992D01*
X0130746Y0063844D01*
X0130740Y0063696D01*
X0130730Y0063548D01*
X0130716Y0063401D01*
X0130698Y0063254D01*
X0130677Y0063108D01*
X0130651Y0062962D01*
X0130621Y0062817D01*
X0130588Y0062673D01*
X0130550Y0062530D01*
X0130509Y0062388D01*
X0130464Y0062247D01*
X0130416Y0062107D01*
X0130363Y0061968D01*
X0130307Y0061831D01*
X0130247Y0061696D01*
X0130184Y0061562D01*
X0130117Y0061430D01*
X0130046Y0061300D01*
X0129972Y0061172D01*
X0129895Y0061046D01*
X0129814Y0060922D01*
X0129730Y0060800D01*
X0129643Y0060681D01*
X0129552Y0060564D01*
X0129458Y0060449D01*
X0129362Y0060337D01*
X0129262Y0060227D01*
X0129160Y0060121D01*
X0129054Y0060017D01*
X0128946Y0059916D01*
X0128835Y0059818D01*
X0128722Y0059722D01*
X0128606Y0059630D01*
X0128488Y0059541D01*
X0128367Y0059456D01*
X0128244Y0059373D01*
X0128119Y0059294D01*
X0127992Y0059218D01*
X0127863Y0059146D01*
X0127732Y0059077D01*
X0127599Y0059012D01*
X0127464Y0058951D01*
X0127328Y0058893D01*
X0127191Y0058838D01*
X0127052Y0058788D01*
X0126911Y0058741D01*
X0126770Y0058698D01*
X0126627Y0058658D01*
X0126483Y0058623D01*
X0126339Y0058591D01*
X0126193Y0058564D01*
X0126047Y0058540D01*
X0125900Y0058520D01*
X0125753Y0058504D01*
X0125606Y0058492D01*
X0125458Y0058484D01*
X0125310Y0058480D01*
X0125162Y0058480D01*
X0125014Y0058484D01*
X0124866Y0058492D01*
X0124719Y0058504D01*
X0124572Y0058520D01*
X0124425Y0058540D01*
X0124279Y0058564D01*
X0124133Y0058591D01*
X0123989Y0058623D01*
X0123845Y0058658D01*
X0123702Y0058698D01*
X0123561Y0058741D01*
X0123420Y0058788D01*
X0123281Y0058838D01*
X0123144Y0058893D01*
X0123008Y0058951D01*
X0122873Y0059012D01*
X0122740Y0059077D01*
X0122609Y0059146D01*
X0122480Y0059218D01*
X0122353Y0059294D01*
X0122228Y0059373D01*
X0122105Y0059456D01*
X0121984Y0059541D01*
X0121866Y0059630D01*
X0121750Y0059722D01*
X0121637Y0059818D01*
X0121526Y0059916D01*
X0121418Y0060017D01*
X0121312Y0060121D01*
X0121210Y0060227D01*
X0121110Y0060337D01*
X0121014Y0060449D01*
X0120920Y0060564D01*
X0120829Y0060681D01*
X0120742Y0060800D01*
X0120658Y0060922D01*
X0120577Y0061046D01*
X0120500Y0061172D01*
X0120426Y0061300D01*
X0120355Y0061430D01*
X0120288Y0061562D01*
X0120225Y0061696D01*
X0120165Y0061831D01*
X0120109Y0061968D01*
X0120056Y0062107D01*
X0120008Y0062247D01*
X0119963Y0062388D01*
X0119922Y0062530D01*
X0119884Y0062673D01*
X0119851Y0062817D01*
X0119821Y0062962D01*
X0119795Y0063108D01*
X0119774Y0063254D01*
X0119756Y0063401D01*
X0119742Y0063548D01*
X0119732Y0063696D01*
X0119726Y0063844D01*
X0119724Y0063992D01*
X0135472Y0063992D02*
X0135474Y0064140D01*
X0135480Y0064288D01*
X0135490Y0064436D01*
X0135504Y0064583D01*
X0135522Y0064730D01*
X0135543Y0064876D01*
X0135569Y0065022D01*
X0135599Y0065167D01*
X0135632Y0065311D01*
X0135670Y0065454D01*
X0135711Y0065596D01*
X0135756Y0065737D01*
X0135804Y0065877D01*
X0135857Y0066016D01*
X0135913Y0066153D01*
X0135973Y0066288D01*
X0136036Y0066422D01*
X0136103Y0066554D01*
X0136174Y0066684D01*
X0136248Y0066812D01*
X0136325Y0066938D01*
X0136406Y0067062D01*
X0136490Y0067184D01*
X0136577Y0067303D01*
X0136668Y0067420D01*
X0136762Y0067535D01*
X0136858Y0067647D01*
X0136958Y0067757D01*
X0137060Y0067863D01*
X0137166Y0067967D01*
X0137274Y0068068D01*
X0137385Y0068166D01*
X0137498Y0068262D01*
X0137614Y0068354D01*
X0137732Y0068443D01*
X0137853Y0068528D01*
X0137976Y0068611D01*
X0138101Y0068690D01*
X0138228Y0068766D01*
X0138357Y0068838D01*
X0138488Y0068907D01*
X0138621Y0068972D01*
X0138756Y0069033D01*
X0138892Y0069091D01*
X0139029Y0069146D01*
X0139168Y0069196D01*
X0139309Y0069243D01*
X0139450Y0069286D01*
X0139593Y0069326D01*
X0139737Y0069361D01*
X0139881Y0069393D01*
X0140027Y0069420D01*
X0140173Y0069444D01*
X0140320Y0069464D01*
X0140467Y0069480D01*
X0140614Y0069492D01*
X0140762Y0069500D01*
X0140910Y0069504D01*
X0141058Y0069504D01*
X0141206Y0069500D01*
X0141354Y0069492D01*
X0141501Y0069480D01*
X0141648Y0069464D01*
X0141795Y0069444D01*
X0141941Y0069420D01*
X0142087Y0069393D01*
X0142231Y0069361D01*
X0142375Y0069326D01*
X0142518Y0069286D01*
X0142659Y0069243D01*
X0142800Y0069196D01*
X0142939Y0069146D01*
X0143076Y0069091D01*
X0143212Y0069033D01*
X0143347Y0068972D01*
X0143480Y0068907D01*
X0143611Y0068838D01*
X0143740Y0068766D01*
X0143867Y0068690D01*
X0143992Y0068611D01*
X0144115Y0068528D01*
X0144236Y0068443D01*
X0144354Y0068354D01*
X0144470Y0068262D01*
X0144583Y0068166D01*
X0144694Y0068068D01*
X0144802Y0067967D01*
X0144908Y0067863D01*
X0145010Y0067757D01*
X0145110Y0067647D01*
X0145206Y0067535D01*
X0145300Y0067420D01*
X0145391Y0067303D01*
X0145478Y0067184D01*
X0145562Y0067062D01*
X0145643Y0066938D01*
X0145720Y0066812D01*
X0145794Y0066684D01*
X0145865Y0066554D01*
X0145932Y0066422D01*
X0145995Y0066288D01*
X0146055Y0066153D01*
X0146111Y0066016D01*
X0146164Y0065877D01*
X0146212Y0065737D01*
X0146257Y0065596D01*
X0146298Y0065454D01*
X0146336Y0065311D01*
X0146369Y0065167D01*
X0146399Y0065022D01*
X0146425Y0064876D01*
X0146446Y0064730D01*
X0146464Y0064583D01*
X0146478Y0064436D01*
X0146488Y0064288D01*
X0146494Y0064140D01*
X0146496Y0063992D01*
X0146494Y0063844D01*
X0146488Y0063696D01*
X0146478Y0063548D01*
X0146464Y0063401D01*
X0146446Y0063254D01*
X0146425Y0063108D01*
X0146399Y0062962D01*
X0146369Y0062817D01*
X0146336Y0062673D01*
X0146298Y0062530D01*
X0146257Y0062388D01*
X0146212Y0062247D01*
X0146164Y0062107D01*
X0146111Y0061968D01*
X0146055Y0061831D01*
X0145995Y0061696D01*
X0145932Y0061562D01*
X0145865Y0061430D01*
X0145794Y0061300D01*
X0145720Y0061172D01*
X0145643Y0061046D01*
X0145562Y0060922D01*
X0145478Y0060800D01*
X0145391Y0060681D01*
X0145300Y0060564D01*
X0145206Y0060449D01*
X0145110Y0060337D01*
X0145010Y0060227D01*
X0144908Y0060121D01*
X0144802Y0060017D01*
X0144694Y0059916D01*
X0144583Y0059818D01*
X0144470Y0059722D01*
X0144354Y0059630D01*
X0144236Y0059541D01*
X0144115Y0059456D01*
X0143992Y0059373D01*
X0143867Y0059294D01*
X0143740Y0059218D01*
X0143611Y0059146D01*
X0143480Y0059077D01*
X0143347Y0059012D01*
X0143212Y0058951D01*
X0143076Y0058893D01*
X0142939Y0058838D01*
X0142800Y0058788D01*
X0142659Y0058741D01*
X0142518Y0058698D01*
X0142375Y0058658D01*
X0142231Y0058623D01*
X0142087Y0058591D01*
X0141941Y0058564D01*
X0141795Y0058540D01*
X0141648Y0058520D01*
X0141501Y0058504D01*
X0141354Y0058492D01*
X0141206Y0058484D01*
X0141058Y0058480D01*
X0140910Y0058480D01*
X0140762Y0058484D01*
X0140614Y0058492D01*
X0140467Y0058504D01*
X0140320Y0058520D01*
X0140173Y0058540D01*
X0140027Y0058564D01*
X0139881Y0058591D01*
X0139737Y0058623D01*
X0139593Y0058658D01*
X0139450Y0058698D01*
X0139309Y0058741D01*
X0139168Y0058788D01*
X0139029Y0058838D01*
X0138892Y0058893D01*
X0138756Y0058951D01*
X0138621Y0059012D01*
X0138488Y0059077D01*
X0138357Y0059146D01*
X0138228Y0059218D01*
X0138101Y0059294D01*
X0137976Y0059373D01*
X0137853Y0059456D01*
X0137732Y0059541D01*
X0137614Y0059630D01*
X0137498Y0059722D01*
X0137385Y0059818D01*
X0137274Y0059916D01*
X0137166Y0060017D01*
X0137060Y0060121D01*
X0136958Y0060227D01*
X0136858Y0060337D01*
X0136762Y0060449D01*
X0136668Y0060564D01*
X0136577Y0060681D01*
X0136490Y0060800D01*
X0136406Y0060922D01*
X0136325Y0061046D01*
X0136248Y0061172D01*
X0136174Y0061300D01*
X0136103Y0061430D01*
X0136036Y0061562D01*
X0135973Y0061696D01*
X0135913Y0061831D01*
X0135857Y0061968D01*
X0135804Y0062107D01*
X0135756Y0062247D01*
X0135711Y0062388D01*
X0135670Y0062530D01*
X0135632Y0062673D01*
X0135599Y0062817D01*
X0135569Y0062962D01*
X0135543Y0063108D01*
X0135522Y0063254D01*
X0135504Y0063401D01*
X0135490Y0063548D01*
X0135480Y0063696D01*
X0135474Y0063844D01*
X0135472Y0063992D01*
X0118543Y0032142D02*
X0118545Y0032340D01*
X0118553Y0032538D01*
X0118565Y0032736D01*
X0118582Y0032933D01*
X0118604Y0033130D01*
X0118630Y0033326D01*
X0118662Y0033522D01*
X0118698Y0033717D01*
X0118739Y0033910D01*
X0118785Y0034103D01*
X0118835Y0034295D01*
X0118891Y0034485D01*
X0118950Y0034674D01*
X0119015Y0034861D01*
X0119084Y0035047D01*
X0119157Y0035231D01*
X0119235Y0035413D01*
X0119318Y0035593D01*
X0119405Y0035771D01*
X0119496Y0035947D01*
X0119592Y0036120D01*
X0119691Y0036291D01*
X0119795Y0036460D01*
X0119903Y0036626D01*
X0120015Y0036789D01*
X0120131Y0036950D01*
X0120251Y0037108D01*
X0120375Y0037262D01*
X0120503Y0037414D01*
X0120634Y0037562D01*
X0120769Y0037707D01*
X0120907Y0037849D01*
X0121049Y0037987D01*
X0121194Y0038122D01*
X0121342Y0038253D01*
X0121494Y0038381D01*
X0121648Y0038505D01*
X0121806Y0038625D01*
X0121967Y0038741D01*
X0122130Y0038853D01*
X0122296Y0038961D01*
X0122465Y0039065D01*
X0122636Y0039164D01*
X0122809Y0039260D01*
X0122985Y0039351D01*
X0123163Y0039438D01*
X0123343Y0039521D01*
X0123525Y0039599D01*
X0123709Y0039672D01*
X0123895Y0039741D01*
X0124082Y0039806D01*
X0124271Y0039865D01*
X0124461Y0039921D01*
X0124653Y0039971D01*
X0124846Y0040017D01*
X0125039Y0040058D01*
X0125234Y0040094D01*
X0125430Y0040126D01*
X0125626Y0040152D01*
X0125823Y0040174D01*
X0126020Y0040191D01*
X0126218Y0040203D01*
X0126416Y0040211D01*
X0126614Y0040213D01*
X0126812Y0040211D01*
X0127010Y0040203D01*
X0127208Y0040191D01*
X0127405Y0040174D01*
X0127602Y0040152D01*
X0127798Y0040126D01*
X0127994Y0040094D01*
X0128189Y0040058D01*
X0128382Y0040017D01*
X0128575Y0039971D01*
X0128767Y0039921D01*
X0128957Y0039865D01*
X0129146Y0039806D01*
X0129333Y0039741D01*
X0129519Y0039672D01*
X0129703Y0039599D01*
X0129885Y0039521D01*
X0130065Y0039438D01*
X0130243Y0039351D01*
X0130419Y0039260D01*
X0130592Y0039164D01*
X0130763Y0039065D01*
X0130932Y0038961D01*
X0131098Y0038853D01*
X0131261Y0038741D01*
X0131422Y0038625D01*
X0131580Y0038505D01*
X0131734Y0038381D01*
X0131886Y0038253D01*
X0132034Y0038122D01*
X0132179Y0037987D01*
X0132321Y0037849D01*
X0132459Y0037707D01*
X0132594Y0037562D01*
X0132725Y0037414D01*
X0132853Y0037262D01*
X0132977Y0037108D01*
X0133097Y0036950D01*
X0133213Y0036789D01*
X0133325Y0036626D01*
X0133433Y0036460D01*
X0133537Y0036291D01*
X0133636Y0036120D01*
X0133732Y0035947D01*
X0133823Y0035771D01*
X0133910Y0035593D01*
X0133993Y0035413D01*
X0134071Y0035231D01*
X0134144Y0035047D01*
X0134213Y0034861D01*
X0134278Y0034674D01*
X0134337Y0034485D01*
X0134393Y0034295D01*
X0134443Y0034103D01*
X0134489Y0033910D01*
X0134530Y0033717D01*
X0134566Y0033522D01*
X0134598Y0033326D01*
X0134624Y0033130D01*
X0134646Y0032933D01*
X0134663Y0032736D01*
X0134675Y0032538D01*
X0134683Y0032340D01*
X0134685Y0032142D01*
X0134683Y0031944D01*
X0134675Y0031746D01*
X0134663Y0031548D01*
X0134646Y0031351D01*
X0134624Y0031154D01*
X0134598Y0030958D01*
X0134566Y0030762D01*
X0134530Y0030567D01*
X0134489Y0030374D01*
X0134443Y0030181D01*
X0134393Y0029989D01*
X0134337Y0029799D01*
X0134278Y0029610D01*
X0134213Y0029423D01*
X0134144Y0029237D01*
X0134071Y0029053D01*
X0133993Y0028871D01*
X0133910Y0028691D01*
X0133823Y0028513D01*
X0133732Y0028337D01*
X0133636Y0028164D01*
X0133537Y0027993D01*
X0133433Y0027824D01*
X0133325Y0027658D01*
X0133213Y0027495D01*
X0133097Y0027334D01*
X0132977Y0027176D01*
X0132853Y0027022D01*
X0132725Y0026870D01*
X0132594Y0026722D01*
X0132459Y0026577D01*
X0132321Y0026435D01*
X0132179Y0026297D01*
X0132034Y0026162D01*
X0131886Y0026031D01*
X0131734Y0025903D01*
X0131580Y0025779D01*
X0131422Y0025659D01*
X0131261Y0025543D01*
X0131098Y0025431D01*
X0130932Y0025323D01*
X0130763Y0025219D01*
X0130592Y0025120D01*
X0130419Y0025024D01*
X0130243Y0024933D01*
X0130065Y0024846D01*
X0129885Y0024763D01*
X0129703Y0024685D01*
X0129519Y0024612D01*
X0129333Y0024543D01*
X0129146Y0024478D01*
X0128957Y0024419D01*
X0128767Y0024363D01*
X0128575Y0024313D01*
X0128382Y0024267D01*
X0128189Y0024226D01*
X0127994Y0024190D01*
X0127798Y0024158D01*
X0127602Y0024132D01*
X0127405Y0024110D01*
X0127208Y0024093D01*
X0127010Y0024081D01*
X0126812Y0024073D01*
X0126614Y0024071D01*
X0126416Y0024073D01*
X0126218Y0024081D01*
X0126020Y0024093D01*
X0125823Y0024110D01*
X0125626Y0024132D01*
X0125430Y0024158D01*
X0125234Y0024190D01*
X0125039Y0024226D01*
X0124846Y0024267D01*
X0124653Y0024313D01*
X0124461Y0024363D01*
X0124271Y0024419D01*
X0124082Y0024478D01*
X0123895Y0024543D01*
X0123709Y0024612D01*
X0123525Y0024685D01*
X0123343Y0024763D01*
X0123163Y0024846D01*
X0122985Y0024933D01*
X0122809Y0025024D01*
X0122636Y0025120D01*
X0122465Y0025219D01*
X0122296Y0025323D01*
X0122130Y0025431D01*
X0121967Y0025543D01*
X0121806Y0025659D01*
X0121648Y0025779D01*
X0121494Y0025903D01*
X0121342Y0026031D01*
X0121194Y0026162D01*
X0121049Y0026297D01*
X0120907Y0026435D01*
X0120769Y0026577D01*
X0120634Y0026722D01*
X0120503Y0026870D01*
X0120375Y0027022D01*
X0120251Y0027176D01*
X0120131Y0027334D01*
X0120015Y0027495D01*
X0119903Y0027658D01*
X0119795Y0027824D01*
X0119691Y0027993D01*
X0119592Y0028164D01*
X0119496Y0028337D01*
X0119405Y0028513D01*
X0119318Y0028691D01*
X0119235Y0028871D01*
X0119157Y0029053D01*
X0119084Y0029237D01*
X0119015Y0029423D01*
X0118950Y0029610D01*
X0118891Y0029799D01*
X0118835Y0029989D01*
X0118785Y0030181D01*
X0118739Y0030374D01*
X0118698Y0030567D01*
X0118662Y0030762D01*
X0118630Y0030958D01*
X0118604Y0031154D01*
X0118582Y0031351D01*
X0118565Y0031548D01*
X0118553Y0031746D01*
X0118545Y0031944D01*
X0118543Y0032142D01*
X0118543Y0099071D02*
X0118545Y0099269D01*
X0118553Y0099467D01*
X0118565Y0099665D01*
X0118582Y0099862D01*
X0118604Y0100059D01*
X0118630Y0100255D01*
X0118662Y0100451D01*
X0118698Y0100646D01*
X0118739Y0100839D01*
X0118785Y0101032D01*
X0118835Y0101224D01*
X0118891Y0101414D01*
X0118950Y0101603D01*
X0119015Y0101790D01*
X0119084Y0101976D01*
X0119157Y0102160D01*
X0119235Y0102342D01*
X0119318Y0102522D01*
X0119405Y0102700D01*
X0119496Y0102876D01*
X0119592Y0103049D01*
X0119691Y0103220D01*
X0119795Y0103389D01*
X0119903Y0103555D01*
X0120015Y0103718D01*
X0120131Y0103879D01*
X0120251Y0104037D01*
X0120375Y0104191D01*
X0120503Y0104343D01*
X0120634Y0104491D01*
X0120769Y0104636D01*
X0120907Y0104778D01*
X0121049Y0104916D01*
X0121194Y0105051D01*
X0121342Y0105182D01*
X0121494Y0105310D01*
X0121648Y0105434D01*
X0121806Y0105554D01*
X0121967Y0105670D01*
X0122130Y0105782D01*
X0122296Y0105890D01*
X0122465Y0105994D01*
X0122636Y0106093D01*
X0122809Y0106189D01*
X0122985Y0106280D01*
X0123163Y0106367D01*
X0123343Y0106450D01*
X0123525Y0106528D01*
X0123709Y0106601D01*
X0123895Y0106670D01*
X0124082Y0106735D01*
X0124271Y0106794D01*
X0124461Y0106850D01*
X0124653Y0106900D01*
X0124846Y0106946D01*
X0125039Y0106987D01*
X0125234Y0107023D01*
X0125430Y0107055D01*
X0125626Y0107081D01*
X0125823Y0107103D01*
X0126020Y0107120D01*
X0126218Y0107132D01*
X0126416Y0107140D01*
X0126614Y0107142D01*
X0126812Y0107140D01*
X0127010Y0107132D01*
X0127208Y0107120D01*
X0127405Y0107103D01*
X0127602Y0107081D01*
X0127798Y0107055D01*
X0127994Y0107023D01*
X0128189Y0106987D01*
X0128382Y0106946D01*
X0128575Y0106900D01*
X0128767Y0106850D01*
X0128957Y0106794D01*
X0129146Y0106735D01*
X0129333Y0106670D01*
X0129519Y0106601D01*
X0129703Y0106528D01*
X0129885Y0106450D01*
X0130065Y0106367D01*
X0130243Y0106280D01*
X0130419Y0106189D01*
X0130592Y0106093D01*
X0130763Y0105994D01*
X0130932Y0105890D01*
X0131098Y0105782D01*
X0131261Y0105670D01*
X0131422Y0105554D01*
X0131580Y0105434D01*
X0131734Y0105310D01*
X0131886Y0105182D01*
X0132034Y0105051D01*
X0132179Y0104916D01*
X0132321Y0104778D01*
X0132459Y0104636D01*
X0132594Y0104491D01*
X0132725Y0104343D01*
X0132853Y0104191D01*
X0132977Y0104037D01*
X0133097Y0103879D01*
X0133213Y0103718D01*
X0133325Y0103555D01*
X0133433Y0103389D01*
X0133537Y0103220D01*
X0133636Y0103049D01*
X0133732Y0102876D01*
X0133823Y0102700D01*
X0133910Y0102522D01*
X0133993Y0102342D01*
X0134071Y0102160D01*
X0134144Y0101976D01*
X0134213Y0101790D01*
X0134278Y0101603D01*
X0134337Y0101414D01*
X0134393Y0101224D01*
X0134443Y0101032D01*
X0134489Y0100839D01*
X0134530Y0100646D01*
X0134566Y0100451D01*
X0134598Y0100255D01*
X0134624Y0100059D01*
X0134646Y0099862D01*
X0134663Y0099665D01*
X0134675Y0099467D01*
X0134683Y0099269D01*
X0134685Y0099071D01*
X0134683Y0098873D01*
X0134675Y0098675D01*
X0134663Y0098477D01*
X0134646Y0098280D01*
X0134624Y0098083D01*
X0134598Y0097887D01*
X0134566Y0097691D01*
X0134530Y0097496D01*
X0134489Y0097303D01*
X0134443Y0097110D01*
X0134393Y0096918D01*
X0134337Y0096728D01*
X0134278Y0096539D01*
X0134213Y0096352D01*
X0134144Y0096166D01*
X0134071Y0095982D01*
X0133993Y0095800D01*
X0133910Y0095620D01*
X0133823Y0095442D01*
X0133732Y0095266D01*
X0133636Y0095093D01*
X0133537Y0094922D01*
X0133433Y0094753D01*
X0133325Y0094587D01*
X0133213Y0094424D01*
X0133097Y0094263D01*
X0132977Y0094105D01*
X0132853Y0093951D01*
X0132725Y0093799D01*
X0132594Y0093651D01*
X0132459Y0093506D01*
X0132321Y0093364D01*
X0132179Y0093226D01*
X0132034Y0093091D01*
X0131886Y0092960D01*
X0131734Y0092832D01*
X0131580Y0092708D01*
X0131422Y0092588D01*
X0131261Y0092472D01*
X0131098Y0092360D01*
X0130932Y0092252D01*
X0130763Y0092148D01*
X0130592Y0092049D01*
X0130419Y0091953D01*
X0130243Y0091862D01*
X0130065Y0091775D01*
X0129885Y0091692D01*
X0129703Y0091614D01*
X0129519Y0091541D01*
X0129333Y0091472D01*
X0129146Y0091407D01*
X0128957Y0091348D01*
X0128767Y0091292D01*
X0128575Y0091242D01*
X0128382Y0091196D01*
X0128189Y0091155D01*
X0127994Y0091119D01*
X0127798Y0091087D01*
X0127602Y0091061D01*
X0127405Y0091039D01*
X0127208Y0091022D01*
X0127010Y0091010D01*
X0126812Y0091002D01*
X0126614Y0091000D01*
X0126416Y0091002D01*
X0126218Y0091010D01*
X0126020Y0091022D01*
X0125823Y0091039D01*
X0125626Y0091061D01*
X0125430Y0091087D01*
X0125234Y0091119D01*
X0125039Y0091155D01*
X0124846Y0091196D01*
X0124653Y0091242D01*
X0124461Y0091292D01*
X0124271Y0091348D01*
X0124082Y0091407D01*
X0123895Y0091472D01*
X0123709Y0091541D01*
X0123525Y0091614D01*
X0123343Y0091692D01*
X0123163Y0091775D01*
X0122985Y0091862D01*
X0122809Y0091953D01*
X0122636Y0092049D01*
X0122465Y0092148D01*
X0122296Y0092252D01*
X0122130Y0092360D01*
X0121967Y0092472D01*
X0121806Y0092588D01*
X0121648Y0092708D01*
X0121494Y0092832D01*
X0121342Y0092960D01*
X0121194Y0093091D01*
X0121049Y0093226D01*
X0120907Y0093364D01*
X0120769Y0093506D01*
X0120634Y0093651D01*
X0120503Y0093799D01*
X0120375Y0093951D01*
X0120251Y0094105D01*
X0120131Y0094263D01*
X0120015Y0094424D01*
X0119903Y0094587D01*
X0119795Y0094753D01*
X0119691Y0094922D01*
X0119592Y0095093D01*
X0119496Y0095266D01*
X0119405Y0095442D01*
X0119318Y0095620D01*
X0119235Y0095800D01*
X0119157Y0095982D01*
X0119084Y0096166D01*
X0119015Y0096352D01*
X0118950Y0096539D01*
X0118891Y0096728D01*
X0118835Y0096918D01*
X0118785Y0097110D01*
X0118739Y0097303D01*
X0118698Y0097496D01*
X0118662Y0097691D01*
X0118630Y0097887D01*
X0118604Y0098083D01*
X0118582Y0098280D01*
X0118565Y0098477D01*
X0118553Y0098675D01*
X0118545Y0098873D01*
X0118543Y0099071D01*
X0119724Y0130921D02*
X0119726Y0131069D01*
X0119732Y0131217D01*
X0119742Y0131365D01*
X0119756Y0131512D01*
X0119774Y0131659D01*
X0119795Y0131805D01*
X0119821Y0131951D01*
X0119851Y0132096D01*
X0119884Y0132240D01*
X0119922Y0132383D01*
X0119963Y0132525D01*
X0120008Y0132666D01*
X0120056Y0132806D01*
X0120109Y0132945D01*
X0120165Y0133082D01*
X0120225Y0133217D01*
X0120288Y0133351D01*
X0120355Y0133483D01*
X0120426Y0133613D01*
X0120500Y0133741D01*
X0120577Y0133867D01*
X0120658Y0133991D01*
X0120742Y0134113D01*
X0120829Y0134232D01*
X0120920Y0134349D01*
X0121014Y0134464D01*
X0121110Y0134576D01*
X0121210Y0134686D01*
X0121312Y0134792D01*
X0121418Y0134896D01*
X0121526Y0134997D01*
X0121637Y0135095D01*
X0121750Y0135191D01*
X0121866Y0135283D01*
X0121984Y0135372D01*
X0122105Y0135457D01*
X0122228Y0135540D01*
X0122353Y0135619D01*
X0122480Y0135695D01*
X0122609Y0135767D01*
X0122740Y0135836D01*
X0122873Y0135901D01*
X0123008Y0135962D01*
X0123144Y0136020D01*
X0123281Y0136075D01*
X0123420Y0136125D01*
X0123561Y0136172D01*
X0123702Y0136215D01*
X0123845Y0136255D01*
X0123989Y0136290D01*
X0124133Y0136322D01*
X0124279Y0136349D01*
X0124425Y0136373D01*
X0124572Y0136393D01*
X0124719Y0136409D01*
X0124866Y0136421D01*
X0125014Y0136429D01*
X0125162Y0136433D01*
X0125310Y0136433D01*
X0125458Y0136429D01*
X0125606Y0136421D01*
X0125753Y0136409D01*
X0125900Y0136393D01*
X0126047Y0136373D01*
X0126193Y0136349D01*
X0126339Y0136322D01*
X0126483Y0136290D01*
X0126627Y0136255D01*
X0126770Y0136215D01*
X0126911Y0136172D01*
X0127052Y0136125D01*
X0127191Y0136075D01*
X0127328Y0136020D01*
X0127464Y0135962D01*
X0127599Y0135901D01*
X0127732Y0135836D01*
X0127863Y0135767D01*
X0127992Y0135695D01*
X0128119Y0135619D01*
X0128244Y0135540D01*
X0128367Y0135457D01*
X0128488Y0135372D01*
X0128606Y0135283D01*
X0128722Y0135191D01*
X0128835Y0135095D01*
X0128946Y0134997D01*
X0129054Y0134896D01*
X0129160Y0134792D01*
X0129262Y0134686D01*
X0129362Y0134576D01*
X0129458Y0134464D01*
X0129552Y0134349D01*
X0129643Y0134232D01*
X0129730Y0134113D01*
X0129814Y0133991D01*
X0129895Y0133867D01*
X0129972Y0133741D01*
X0130046Y0133613D01*
X0130117Y0133483D01*
X0130184Y0133351D01*
X0130247Y0133217D01*
X0130307Y0133082D01*
X0130363Y0132945D01*
X0130416Y0132806D01*
X0130464Y0132666D01*
X0130509Y0132525D01*
X0130550Y0132383D01*
X0130588Y0132240D01*
X0130621Y0132096D01*
X0130651Y0131951D01*
X0130677Y0131805D01*
X0130698Y0131659D01*
X0130716Y0131512D01*
X0130730Y0131365D01*
X0130740Y0131217D01*
X0130746Y0131069D01*
X0130748Y0130921D01*
X0130746Y0130773D01*
X0130740Y0130625D01*
X0130730Y0130477D01*
X0130716Y0130330D01*
X0130698Y0130183D01*
X0130677Y0130037D01*
X0130651Y0129891D01*
X0130621Y0129746D01*
X0130588Y0129602D01*
X0130550Y0129459D01*
X0130509Y0129317D01*
X0130464Y0129176D01*
X0130416Y0129036D01*
X0130363Y0128897D01*
X0130307Y0128760D01*
X0130247Y0128625D01*
X0130184Y0128491D01*
X0130117Y0128359D01*
X0130046Y0128229D01*
X0129972Y0128101D01*
X0129895Y0127975D01*
X0129814Y0127851D01*
X0129730Y0127729D01*
X0129643Y0127610D01*
X0129552Y0127493D01*
X0129458Y0127378D01*
X0129362Y0127266D01*
X0129262Y0127156D01*
X0129160Y0127050D01*
X0129054Y0126946D01*
X0128946Y0126845D01*
X0128835Y0126747D01*
X0128722Y0126651D01*
X0128606Y0126559D01*
X0128488Y0126470D01*
X0128367Y0126385D01*
X0128244Y0126302D01*
X0128119Y0126223D01*
X0127992Y0126147D01*
X0127863Y0126075D01*
X0127732Y0126006D01*
X0127599Y0125941D01*
X0127464Y0125880D01*
X0127328Y0125822D01*
X0127191Y0125767D01*
X0127052Y0125717D01*
X0126911Y0125670D01*
X0126770Y0125627D01*
X0126627Y0125587D01*
X0126483Y0125552D01*
X0126339Y0125520D01*
X0126193Y0125493D01*
X0126047Y0125469D01*
X0125900Y0125449D01*
X0125753Y0125433D01*
X0125606Y0125421D01*
X0125458Y0125413D01*
X0125310Y0125409D01*
X0125162Y0125409D01*
X0125014Y0125413D01*
X0124866Y0125421D01*
X0124719Y0125433D01*
X0124572Y0125449D01*
X0124425Y0125469D01*
X0124279Y0125493D01*
X0124133Y0125520D01*
X0123989Y0125552D01*
X0123845Y0125587D01*
X0123702Y0125627D01*
X0123561Y0125670D01*
X0123420Y0125717D01*
X0123281Y0125767D01*
X0123144Y0125822D01*
X0123008Y0125880D01*
X0122873Y0125941D01*
X0122740Y0126006D01*
X0122609Y0126075D01*
X0122480Y0126147D01*
X0122353Y0126223D01*
X0122228Y0126302D01*
X0122105Y0126385D01*
X0121984Y0126470D01*
X0121866Y0126559D01*
X0121750Y0126651D01*
X0121637Y0126747D01*
X0121526Y0126845D01*
X0121418Y0126946D01*
X0121312Y0127050D01*
X0121210Y0127156D01*
X0121110Y0127266D01*
X0121014Y0127378D01*
X0120920Y0127493D01*
X0120829Y0127610D01*
X0120742Y0127729D01*
X0120658Y0127851D01*
X0120577Y0127975D01*
X0120500Y0128101D01*
X0120426Y0128229D01*
X0120355Y0128359D01*
X0120288Y0128491D01*
X0120225Y0128625D01*
X0120165Y0128760D01*
X0120109Y0128897D01*
X0120056Y0129036D01*
X0120008Y0129176D01*
X0119963Y0129317D01*
X0119922Y0129459D01*
X0119884Y0129602D01*
X0119851Y0129746D01*
X0119821Y0129891D01*
X0119795Y0130037D01*
X0119774Y0130183D01*
X0119756Y0130330D01*
X0119742Y0130477D01*
X0119732Y0130625D01*
X0119726Y0130773D01*
X0119724Y0130921D01*
X0103976Y0130921D02*
X0103978Y0131069D01*
X0103984Y0131217D01*
X0103994Y0131365D01*
X0104008Y0131512D01*
X0104026Y0131659D01*
X0104047Y0131805D01*
X0104073Y0131951D01*
X0104103Y0132096D01*
X0104136Y0132240D01*
X0104174Y0132383D01*
X0104215Y0132525D01*
X0104260Y0132666D01*
X0104308Y0132806D01*
X0104361Y0132945D01*
X0104417Y0133082D01*
X0104477Y0133217D01*
X0104540Y0133351D01*
X0104607Y0133483D01*
X0104678Y0133613D01*
X0104752Y0133741D01*
X0104829Y0133867D01*
X0104910Y0133991D01*
X0104994Y0134113D01*
X0105081Y0134232D01*
X0105172Y0134349D01*
X0105266Y0134464D01*
X0105362Y0134576D01*
X0105462Y0134686D01*
X0105564Y0134792D01*
X0105670Y0134896D01*
X0105778Y0134997D01*
X0105889Y0135095D01*
X0106002Y0135191D01*
X0106118Y0135283D01*
X0106236Y0135372D01*
X0106357Y0135457D01*
X0106480Y0135540D01*
X0106605Y0135619D01*
X0106732Y0135695D01*
X0106861Y0135767D01*
X0106992Y0135836D01*
X0107125Y0135901D01*
X0107260Y0135962D01*
X0107396Y0136020D01*
X0107533Y0136075D01*
X0107672Y0136125D01*
X0107813Y0136172D01*
X0107954Y0136215D01*
X0108097Y0136255D01*
X0108241Y0136290D01*
X0108385Y0136322D01*
X0108531Y0136349D01*
X0108677Y0136373D01*
X0108824Y0136393D01*
X0108971Y0136409D01*
X0109118Y0136421D01*
X0109266Y0136429D01*
X0109414Y0136433D01*
X0109562Y0136433D01*
X0109710Y0136429D01*
X0109858Y0136421D01*
X0110005Y0136409D01*
X0110152Y0136393D01*
X0110299Y0136373D01*
X0110445Y0136349D01*
X0110591Y0136322D01*
X0110735Y0136290D01*
X0110879Y0136255D01*
X0111022Y0136215D01*
X0111163Y0136172D01*
X0111304Y0136125D01*
X0111443Y0136075D01*
X0111580Y0136020D01*
X0111716Y0135962D01*
X0111851Y0135901D01*
X0111984Y0135836D01*
X0112115Y0135767D01*
X0112244Y0135695D01*
X0112371Y0135619D01*
X0112496Y0135540D01*
X0112619Y0135457D01*
X0112740Y0135372D01*
X0112858Y0135283D01*
X0112974Y0135191D01*
X0113087Y0135095D01*
X0113198Y0134997D01*
X0113306Y0134896D01*
X0113412Y0134792D01*
X0113514Y0134686D01*
X0113614Y0134576D01*
X0113710Y0134464D01*
X0113804Y0134349D01*
X0113895Y0134232D01*
X0113982Y0134113D01*
X0114066Y0133991D01*
X0114147Y0133867D01*
X0114224Y0133741D01*
X0114298Y0133613D01*
X0114369Y0133483D01*
X0114436Y0133351D01*
X0114499Y0133217D01*
X0114559Y0133082D01*
X0114615Y0132945D01*
X0114668Y0132806D01*
X0114716Y0132666D01*
X0114761Y0132525D01*
X0114802Y0132383D01*
X0114840Y0132240D01*
X0114873Y0132096D01*
X0114903Y0131951D01*
X0114929Y0131805D01*
X0114950Y0131659D01*
X0114968Y0131512D01*
X0114982Y0131365D01*
X0114992Y0131217D01*
X0114998Y0131069D01*
X0115000Y0130921D01*
X0114998Y0130773D01*
X0114992Y0130625D01*
X0114982Y0130477D01*
X0114968Y0130330D01*
X0114950Y0130183D01*
X0114929Y0130037D01*
X0114903Y0129891D01*
X0114873Y0129746D01*
X0114840Y0129602D01*
X0114802Y0129459D01*
X0114761Y0129317D01*
X0114716Y0129176D01*
X0114668Y0129036D01*
X0114615Y0128897D01*
X0114559Y0128760D01*
X0114499Y0128625D01*
X0114436Y0128491D01*
X0114369Y0128359D01*
X0114298Y0128229D01*
X0114224Y0128101D01*
X0114147Y0127975D01*
X0114066Y0127851D01*
X0113982Y0127729D01*
X0113895Y0127610D01*
X0113804Y0127493D01*
X0113710Y0127378D01*
X0113614Y0127266D01*
X0113514Y0127156D01*
X0113412Y0127050D01*
X0113306Y0126946D01*
X0113198Y0126845D01*
X0113087Y0126747D01*
X0112974Y0126651D01*
X0112858Y0126559D01*
X0112740Y0126470D01*
X0112619Y0126385D01*
X0112496Y0126302D01*
X0112371Y0126223D01*
X0112244Y0126147D01*
X0112115Y0126075D01*
X0111984Y0126006D01*
X0111851Y0125941D01*
X0111716Y0125880D01*
X0111580Y0125822D01*
X0111443Y0125767D01*
X0111304Y0125717D01*
X0111163Y0125670D01*
X0111022Y0125627D01*
X0110879Y0125587D01*
X0110735Y0125552D01*
X0110591Y0125520D01*
X0110445Y0125493D01*
X0110299Y0125469D01*
X0110152Y0125449D01*
X0110005Y0125433D01*
X0109858Y0125421D01*
X0109710Y0125413D01*
X0109562Y0125409D01*
X0109414Y0125409D01*
X0109266Y0125413D01*
X0109118Y0125421D01*
X0108971Y0125433D01*
X0108824Y0125449D01*
X0108677Y0125469D01*
X0108531Y0125493D01*
X0108385Y0125520D01*
X0108241Y0125552D01*
X0108097Y0125587D01*
X0107954Y0125627D01*
X0107813Y0125670D01*
X0107672Y0125717D01*
X0107533Y0125767D01*
X0107396Y0125822D01*
X0107260Y0125880D01*
X0107125Y0125941D01*
X0106992Y0126006D01*
X0106861Y0126075D01*
X0106732Y0126147D01*
X0106605Y0126223D01*
X0106480Y0126302D01*
X0106357Y0126385D01*
X0106236Y0126470D01*
X0106118Y0126559D01*
X0106002Y0126651D01*
X0105889Y0126747D01*
X0105778Y0126845D01*
X0105670Y0126946D01*
X0105564Y0127050D01*
X0105462Y0127156D01*
X0105362Y0127266D01*
X0105266Y0127378D01*
X0105172Y0127493D01*
X0105081Y0127610D01*
X0104994Y0127729D01*
X0104910Y0127851D01*
X0104829Y0127975D01*
X0104752Y0128101D01*
X0104678Y0128229D01*
X0104607Y0128359D01*
X0104540Y0128491D01*
X0104477Y0128625D01*
X0104417Y0128760D01*
X0104361Y0128897D01*
X0104308Y0129036D01*
X0104260Y0129176D01*
X0104215Y0129317D01*
X0104174Y0129459D01*
X0104136Y0129602D01*
X0104103Y0129746D01*
X0104073Y0129891D01*
X0104047Y0130037D01*
X0104026Y0130183D01*
X0104008Y0130330D01*
X0103994Y0130477D01*
X0103984Y0130625D01*
X0103978Y0130773D01*
X0103976Y0130921D01*
X0088228Y0130921D02*
X0088230Y0131069D01*
X0088236Y0131217D01*
X0088246Y0131365D01*
X0088260Y0131512D01*
X0088278Y0131659D01*
X0088299Y0131805D01*
X0088325Y0131951D01*
X0088355Y0132096D01*
X0088388Y0132240D01*
X0088426Y0132383D01*
X0088467Y0132525D01*
X0088512Y0132666D01*
X0088560Y0132806D01*
X0088613Y0132945D01*
X0088669Y0133082D01*
X0088729Y0133217D01*
X0088792Y0133351D01*
X0088859Y0133483D01*
X0088930Y0133613D01*
X0089004Y0133741D01*
X0089081Y0133867D01*
X0089162Y0133991D01*
X0089246Y0134113D01*
X0089333Y0134232D01*
X0089424Y0134349D01*
X0089518Y0134464D01*
X0089614Y0134576D01*
X0089714Y0134686D01*
X0089816Y0134792D01*
X0089922Y0134896D01*
X0090030Y0134997D01*
X0090141Y0135095D01*
X0090254Y0135191D01*
X0090370Y0135283D01*
X0090488Y0135372D01*
X0090609Y0135457D01*
X0090732Y0135540D01*
X0090857Y0135619D01*
X0090984Y0135695D01*
X0091113Y0135767D01*
X0091244Y0135836D01*
X0091377Y0135901D01*
X0091512Y0135962D01*
X0091648Y0136020D01*
X0091785Y0136075D01*
X0091924Y0136125D01*
X0092065Y0136172D01*
X0092206Y0136215D01*
X0092349Y0136255D01*
X0092493Y0136290D01*
X0092637Y0136322D01*
X0092783Y0136349D01*
X0092929Y0136373D01*
X0093076Y0136393D01*
X0093223Y0136409D01*
X0093370Y0136421D01*
X0093518Y0136429D01*
X0093666Y0136433D01*
X0093814Y0136433D01*
X0093962Y0136429D01*
X0094110Y0136421D01*
X0094257Y0136409D01*
X0094404Y0136393D01*
X0094551Y0136373D01*
X0094697Y0136349D01*
X0094843Y0136322D01*
X0094987Y0136290D01*
X0095131Y0136255D01*
X0095274Y0136215D01*
X0095415Y0136172D01*
X0095556Y0136125D01*
X0095695Y0136075D01*
X0095832Y0136020D01*
X0095968Y0135962D01*
X0096103Y0135901D01*
X0096236Y0135836D01*
X0096367Y0135767D01*
X0096496Y0135695D01*
X0096623Y0135619D01*
X0096748Y0135540D01*
X0096871Y0135457D01*
X0096992Y0135372D01*
X0097110Y0135283D01*
X0097226Y0135191D01*
X0097339Y0135095D01*
X0097450Y0134997D01*
X0097558Y0134896D01*
X0097664Y0134792D01*
X0097766Y0134686D01*
X0097866Y0134576D01*
X0097962Y0134464D01*
X0098056Y0134349D01*
X0098147Y0134232D01*
X0098234Y0134113D01*
X0098318Y0133991D01*
X0098399Y0133867D01*
X0098476Y0133741D01*
X0098550Y0133613D01*
X0098621Y0133483D01*
X0098688Y0133351D01*
X0098751Y0133217D01*
X0098811Y0133082D01*
X0098867Y0132945D01*
X0098920Y0132806D01*
X0098968Y0132666D01*
X0099013Y0132525D01*
X0099054Y0132383D01*
X0099092Y0132240D01*
X0099125Y0132096D01*
X0099155Y0131951D01*
X0099181Y0131805D01*
X0099202Y0131659D01*
X0099220Y0131512D01*
X0099234Y0131365D01*
X0099244Y0131217D01*
X0099250Y0131069D01*
X0099252Y0130921D01*
X0099250Y0130773D01*
X0099244Y0130625D01*
X0099234Y0130477D01*
X0099220Y0130330D01*
X0099202Y0130183D01*
X0099181Y0130037D01*
X0099155Y0129891D01*
X0099125Y0129746D01*
X0099092Y0129602D01*
X0099054Y0129459D01*
X0099013Y0129317D01*
X0098968Y0129176D01*
X0098920Y0129036D01*
X0098867Y0128897D01*
X0098811Y0128760D01*
X0098751Y0128625D01*
X0098688Y0128491D01*
X0098621Y0128359D01*
X0098550Y0128229D01*
X0098476Y0128101D01*
X0098399Y0127975D01*
X0098318Y0127851D01*
X0098234Y0127729D01*
X0098147Y0127610D01*
X0098056Y0127493D01*
X0097962Y0127378D01*
X0097866Y0127266D01*
X0097766Y0127156D01*
X0097664Y0127050D01*
X0097558Y0126946D01*
X0097450Y0126845D01*
X0097339Y0126747D01*
X0097226Y0126651D01*
X0097110Y0126559D01*
X0096992Y0126470D01*
X0096871Y0126385D01*
X0096748Y0126302D01*
X0096623Y0126223D01*
X0096496Y0126147D01*
X0096367Y0126075D01*
X0096236Y0126006D01*
X0096103Y0125941D01*
X0095968Y0125880D01*
X0095832Y0125822D01*
X0095695Y0125767D01*
X0095556Y0125717D01*
X0095415Y0125670D01*
X0095274Y0125627D01*
X0095131Y0125587D01*
X0094987Y0125552D01*
X0094843Y0125520D01*
X0094697Y0125493D01*
X0094551Y0125469D01*
X0094404Y0125449D01*
X0094257Y0125433D01*
X0094110Y0125421D01*
X0093962Y0125413D01*
X0093814Y0125409D01*
X0093666Y0125409D01*
X0093518Y0125413D01*
X0093370Y0125421D01*
X0093223Y0125433D01*
X0093076Y0125449D01*
X0092929Y0125469D01*
X0092783Y0125493D01*
X0092637Y0125520D01*
X0092493Y0125552D01*
X0092349Y0125587D01*
X0092206Y0125627D01*
X0092065Y0125670D01*
X0091924Y0125717D01*
X0091785Y0125767D01*
X0091648Y0125822D01*
X0091512Y0125880D01*
X0091377Y0125941D01*
X0091244Y0126006D01*
X0091113Y0126075D01*
X0090984Y0126147D01*
X0090857Y0126223D01*
X0090732Y0126302D01*
X0090609Y0126385D01*
X0090488Y0126470D01*
X0090370Y0126559D01*
X0090254Y0126651D01*
X0090141Y0126747D01*
X0090030Y0126845D01*
X0089922Y0126946D01*
X0089816Y0127050D01*
X0089714Y0127156D01*
X0089614Y0127266D01*
X0089518Y0127378D01*
X0089424Y0127493D01*
X0089333Y0127610D01*
X0089246Y0127729D01*
X0089162Y0127851D01*
X0089081Y0127975D01*
X0089004Y0128101D01*
X0088930Y0128229D01*
X0088859Y0128359D01*
X0088792Y0128491D01*
X0088729Y0128625D01*
X0088669Y0128760D01*
X0088613Y0128897D01*
X0088560Y0129036D01*
X0088512Y0129176D01*
X0088467Y0129317D01*
X0088426Y0129459D01*
X0088388Y0129602D01*
X0088355Y0129746D01*
X0088325Y0129891D01*
X0088299Y0130037D01*
X0088278Y0130183D01*
X0088260Y0130330D01*
X0088246Y0130477D01*
X0088236Y0130625D01*
X0088230Y0130773D01*
X0088228Y0130921D01*
X0072480Y0130921D02*
X0072482Y0131069D01*
X0072488Y0131217D01*
X0072498Y0131365D01*
X0072512Y0131512D01*
X0072530Y0131659D01*
X0072551Y0131805D01*
X0072577Y0131951D01*
X0072607Y0132096D01*
X0072640Y0132240D01*
X0072678Y0132383D01*
X0072719Y0132525D01*
X0072764Y0132666D01*
X0072812Y0132806D01*
X0072865Y0132945D01*
X0072921Y0133082D01*
X0072981Y0133217D01*
X0073044Y0133351D01*
X0073111Y0133483D01*
X0073182Y0133613D01*
X0073256Y0133741D01*
X0073333Y0133867D01*
X0073414Y0133991D01*
X0073498Y0134113D01*
X0073585Y0134232D01*
X0073676Y0134349D01*
X0073770Y0134464D01*
X0073866Y0134576D01*
X0073966Y0134686D01*
X0074068Y0134792D01*
X0074174Y0134896D01*
X0074282Y0134997D01*
X0074393Y0135095D01*
X0074506Y0135191D01*
X0074622Y0135283D01*
X0074740Y0135372D01*
X0074861Y0135457D01*
X0074984Y0135540D01*
X0075109Y0135619D01*
X0075236Y0135695D01*
X0075365Y0135767D01*
X0075496Y0135836D01*
X0075629Y0135901D01*
X0075764Y0135962D01*
X0075900Y0136020D01*
X0076037Y0136075D01*
X0076176Y0136125D01*
X0076317Y0136172D01*
X0076458Y0136215D01*
X0076601Y0136255D01*
X0076745Y0136290D01*
X0076889Y0136322D01*
X0077035Y0136349D01*
X0077181Y0136373D01*
X0077328Y0136393D01*
X0077475Y0136409D01*
X0077622Y0136421D01*
X0077770Y0136429D01*
X0077918Y0136433D01*
X0078066Y0136433D01*
X0078214Y0136429D01*
X0078362Y0136421D01*
X0078509Y0136409D01*
X0078656Y0136393D01*
X0078803Y0136373D01*
X0078949Y0136349D01*
X0079095Y0136322D01*
X0079239Y0136290D01*
X0079383Y0136255D01*
X0079526Y0136215D01*
X0079667Y0136172D01*
X0079808Y0136125D01*
X0079947Y0136075D01*
X0080084Y0136020D01*
X0080220Y0135962D01*
X0080355Y0135901D01*
X0080488Y0135836D01*
X0080619Y0135767D01*
X0080748Y0135695D01*
X0080875Y0135619D01*
X0081000Y0135540D01*
X0081123Y0135457D01*
X0081244Y0135372D01*
X0081362Y0135283D01*
X0081478Y0135191D01*
X0081591Y0135095D01*
X0081702Y0134997D01*
X0081810Y0134896D01*
X0081916Y0134792D01*
X0082018Y0134686D01*
X0082118Y0134576D01*
X0082214Y0134464D01*
X0082308Y0134349D01*
X0082399Y0134232D01*
X0082486Y0134113D01*
X0082570Y0133991D01*
X0082651Y0133867D01*
X0082728Y0133741D01*
X0082802Y0133613D01*
X0082873Y0133483D01*
X0082940Y0133351D01*
X0083003Y0133217D01*
X0083063Y0133082D01*
X0083119Y0132945D01*
X0083172Y0132806D01*
X0083220Y0132666D01*
X0083265Y0132525D01*
X0083306Y0132383D01*
X0083344Y0132240D01*
X0083377Y0132096D01*
X0083407Y0131951D01*
X0083433Y0131805D01*
X0083454Y0131659D01*
X0083472Y0131512D01*
X0083486Y0131365D01*
X0083496Y0131217D01*
X0083502Y0131069D01*
X0083504Y0130921D01*
X0083502Y0130773D01*
X0083496Y0130625D01*
X0083486Y0130477D01*
X0083472Y0130330D01*
X0083454Y0130183D01*
X0083433Y0130037D01*
X0083407Y0129891D01*
X0083377Y0129746D01*
X0083344Y0129602D01*
X0083306Y0129459D01*
X0083265Y0129317D01*
X0083220Y0129176D01*
X0083172Y0129036D01*
X0083119Y0128897D01*
X0083063Y0128760D01*
X0083003Y0128625D01*
X0082940Y0128491D01*
X0082873Y0128359D01*
X0082802Y0128229D01*
X0082728Y0128101D01*
X0082651Y0127975D01*
X0082570Y0127851D01*
X0082486Y0127729D01*
X0082399Y0127610D01*
X0082308Y0127493D01*
X0082214Y0127378D01*
X0082118Y0127266D01*
X0082018Y0127156D01*
X0081916Y0127050D01*
X0081810Y0126946D01*
X0081702Y0126845D01*
X0081591Y0126747D01*
X0081478Y0126651D01*
X0081362Y0126559D01*
X0081244Y0126470D01*
X0081123Y0126385D01*
X0081000Y0126302D01*
X0080875Y0126223D01*
X0080748Y0126147D01*
X0080619Y0126075D01*
X0080488Y0126006D01*
X0080355Y0125941D01*
X0080220Y0125880D01*
X0080084Y0125822D01*
X0079947Y0125767D01*
X0079808Y0125717D01*
X0079667Y0125670D01*
X0079526Y0125627D01*
X0079383Y0125587D01*
X0079239Y0125552D01*
X0079095Y0125520D01*
X0078949Y0125493D01*
X0078803Y0125469D01*
X0078656Y0125449D01*
X0078509Y0125433D01*
X0078362Y0125421D01*
X0078214Y0125413D01*
X0078066Y0125409D01*
X0077918Y0125409D01*
X0077770Y0125413D01*
X0077622Y0125421D01*
X0077475Y0125433D01*
X0077328Y0125449D01*
X0077181Y0125469D01*
X0077035Y0125493D01*
X0076889Y0125520D01*
X0076745Y0125552D01*
X0076601Y0125587D01*
X0076458Y0125627D01*
X0076317Y0125670D01*
X0076176Y0125717D01*
X0076037Y0125767D01*
X0075900Y0125822D01*
X0075764Y0125880D01*
X0075629Y0125941D01*
X0075496Y0126006D01*
X0075365Y0126075D01*
X0075236Y0126147D01*
X0075109Y0126223D01*
X0074984Y0126302D01*
X0074861Y0126385D01*
X0074740Y0126470D01*
X0074622Y0126559D01*
X0074506Y0126651D01*
X0074393Y0126747D01*
X0074282Y0126845D01*
X0074174Y0126946D01*
X0074068Y0127050D01*
X0073966Y0127156D01*
X0073866Y0127266D01*
X0073770Y0127378D01*
X0073676Y0127493D01*
X0073585Y0127610D01*
X0073498Y0127729D01*
X0073414Y0127851D01*
X0073333Y0127975D01*
X0073256Y0128101D01*
X0073182Y0128229D01*
X0073111Y0128359D01*
X0073044Y0128491D01*
X0072981Y0128625D01*
X0072921Y0128760D01*
X0072865Y0128897D01*
X0072812Y0129036D01*
X0072764Y0129176D01*
X0072719Y0129317D01*
X0072678Y0129459D01*
X0072640Y0129602D01*
X0072607Y0129746D01*
X0072577Y0129891D01*
X0072551Y0130037D01*
X0072530Y0130183D01*
X0072512Y0130330D01*
X0072498Y0130477D01*
X0072488Y0130625D01*
X0072482Y0130773D01*
X0072480Y0130921D01*
X0056732Y0130921D02*
X0056734Y0131069D01*
X0056740Y0131217D01*
X0056750Y0131365D01*
X0056764Y0131512D01*
X0056782Y0131659D01*
X0056803Y0131805D01*
X0056829Y0131951D01*
X0056859Y0132096D01*
X0056892Y0132240D01*
X0056930Y0132383D01*
X0056971Y0132525D01*
X0057016Y0132666D01*
X0057064Y0132806D01*
X0057117Y0132945D01*
X0057173Y0133082D01*
X0057233Y0133217D01*
X0057296Y0133351D01*
X0057363Y0133483D01*
X0057434Y0133613D01*
X0057508Y0133741D01*
X0057585Y0133867D01*
X0057666Y0133991D01*
X0057750Y0134113D01*
X0057837Y0134232D01*
X0057928Y0134349D01*
X0058022Y0134464D01*
X0058118Y0134576D01*
X0058218Y0134686D01*
X0058320Y0134792D01*
X0058426Y0134896D01*
X0058534Y0134997D01*
X0058645Y0135095D01*
X0058758Y0135191D01*
X0058874Y0135283D01*
X0058992Y0135372D01*
X0059113Y0135457D01*
X0059236Y0135540D01*
X0059361Y0135619D01*
X0059488Y0135695D01*
X0059617Y0135767D01*
X0059748Y0135836D01*
X0059881Y0135901D01*
X0060016Y0135962D01*
X0060152Y0136020D01*
X0060289Y0136075D01*
X0060428Y0136125D01*
X0060569Y0136172D01*
X0060710Y0136215D01*
X0060853Y0136255D01*
X0060997Y0136290D01*
X0061141Y0136322D01*
X0061287Y0136349D01*
X0061433Y0136373D01*
X0061580Y0136393D01*
X0061727Y0136409D01*
X0061874Y0136421D01*
X0062022Y0136429D01*
X0062170Y0136433D01*
X0062318Y0136433D01*
X0062466Y0136429D01*
X0062614Y0136421D01*
X0062761Y0136409D01*
X0062908Y0136393D01*
X0063055Y0136373D01*
X0063201Y0136349D01*
X0063347Y0136322D01*
X0063491Y0136290D01*
X0063635Y0136255D01*
X0063778Y0136215D01*
X0063919Y0136172D01*
X0064060Y0136125D01*
X0064199Y0136075D01*
X0064336Y0136020D01*
X0064472Y0135962D01*
X0064607Y0135901D01*
X0064740Y0135836D01*
X0064871Y0135767D01*
X0065000Y0135695D01*
X0065127Y0135619D01*
X0065252Y0135540D01*
X0065375Y0135457D01*
X0065496Y0135372D01*
X0065614Y0135283D01*
X0065730Y0135191D01*
X0065843Y0135095D01*
X0065954Y0134997D01*
X0066062Y0134896D01*
X0066168Y0134792D01*
X0066270Y0134686D01*
X0066370Y0134576D01*
X0066466Y0134464D01*
X0066560Y0134349D01*
X0066651Y0134232D01*
X0066738Y0134113D01*
X0066822Y0133991D01*
X0066903Y0133867D01*
X0066980Y0133741D01*
X0067054Y0133613D01*
X0067125Y0133483D01*
X0067192Y0133351D01*
X0067255Y0133217D01*
X0067315Y0133082D01*
X0067371Y0132945D01*
X0067424Y0132806D01*
X0067472Y0132666D01*
X0067517Y0132525D01*
X0067558Y0132383D01*
X0067596Y0132240D01*
X0067629Y0132096D01*
X0067659Y0131951D01*
X0067685Y0131805D01*
X0067706Y0131659D01*
X0067724Y0131512D01*
X0067738Y0131365D01*
X0067748Y0131217D01*
X0067754Y0131069D01*
X0067756Y0130921D01*
X0067754Y0130773D01*
X0067748Y0130625D01*
X0067738Y0130477D01*
X0067724Y0130330D01*
X0067706Y0130183D01*
X0067685Y0130037D01*
X0067659Y0129891D01*
X0067629Y0129746D01*
X0067596Y0129602D01*
X0067558Y0129459D01*
X0067517Y0129317D01*
X0067472Y0129176D01*
X0067424Y0129036D01*
X0067371Y0128897D01*
X0067315Y0128760D01*
X0067255Y0128625D01*
X0067192Y0128491D01*
X0067125Y0128359D01*
X0067054Y0128229D01*
X0066980Y0128101D01*
X0066903Y0127975D01*
X0066822Y0127851D01*
X0066738Y0127729D01*
X0066651Y0127610D01*
X0066560Y0127493D01*
X0066466Y0127378D01*
X0066370Y0127266D01*
X0066270Y0127156D01*
X0066168Y0127050D01*
X0066062Y0126946D01*
X0065954Y0126845D01*
X0065843Y0126747D01*
X0065730Y0126651D01*
X0065614Y0126559D01*
X0065496Y0126470D01*
X0065375Y0126385D01*
X0065252Y0126302D01*
X0065127Y0126223D01*
X0065000Y0126147D01*
X0064871Y0126075D01*
X0064740Y0126006D01*
X0064607Y0125941D01*
X0064472Y0125880D01*
X0064336Y0125822D01*
X0064199Y0125767D01*
X0064060Y0125717D01*
X0063919Y0125670D01*
X0063778Y0125627D01*
X0063635Y0125587D01*
X0063491Y0125552D01*
X0063347Y0125520D01*
X0063201Y0125493D01*
X0063055Y0125469D01*
X0062908Y0125449D01*
X0062761Y0125433D01*
X0062614Y0125421D01*
X0062466Y0125413D01*
X0062318Y0125409D01*
X0062170Y0125409D01*
X0062022Y0125413D01*
X0061874Y0125421D01*
X0061727Y0125433D01*
X0061580Y0125449D01*
X0061433Y0125469D01*
X0061287Y0125493D01*
X0061141Y0125520D01*
X0060997Y0125552D01*
X0060853Y0125587D01*
X0060710Y0125627D01*
X0060569Y0125670D01*
X0060428Y0125717D01*
X0060289Y0125767D01*
X0060152Y0125822D01*
X0060016Y0125880D01*
X0059881Y0125941D01*
X0059748Y0126006D01*
X0059617Y0126075D01*
X0059488Y0126147D01*
X0059361Y0126223D01*
X0059236Y0126302D01*
X0059113Y0126385D01*
X0058992Y0126470D01*
X0058874Y0126559D01*
X0058758Y0126651D01*
X0058645Y0126747D01*
X0058534Y0126845D01*
X0058426Y0126946D01*
X0058320Y0127050D01*
X0058218Y0127156D01*
X0058118Y0127266D01*
X0058022Y0127378D01*
X0057928Y0127493D01*
X0057837Y0127610D01*
X0057750Y0127729D01*
X0057666Y0127851D01*
X0057585Y0127975D01*
X0057508Y0128101D01*
X0057434Y0128229D01*
X0057363Y0128359D01*
X0057296Y0128491D01*
X0057233Y0128625D01*
X0057173Y0128760D01*
X0057117Y0128897D01*
X0057064Y0129036D01*
X0057016Y0129176D01*
X0056971Y0129317D01*
X0056930Y0129459D01*
X0056892Y0129602D01*
X0056859Y0129746D01*
X0056829Y0129891D01*
X0056803Y0130037D01*
X0056782Y0130183D01*
X0056764Y0130330D01*
X0056750Y0130477D01*
X0056740Y0130625D01*
X0056734Y0130773D01*
X0056732Y0130921D01*
X0040984Y0130921D02*
X0040986Y0131069D01*
X0040992Y0131217D01*
X0041002Y0131365D01*
X0041016Y0131512D01*
X0041034Y0131659D01*
X0041055Y0131805D01*
X0041081Y0131951D01*
X0041111Y0132096D01*
X0041144Y0132240D01*
X0041182Y0132383D01*
X0041223Y0132525D01*
X0041268Y0132666D01*
X0041316Y0132806D01*
X0041369Y0132945D01*
X0041425Y0133082D01*
X0041485Y0133217D01*
X0041548Y0133351D01*
X0041615Y0133483D01*
X0041686Y0133613D01*
X0041760Y0133741D01*
X0041837Y0133867D01*
X0041918Y0133991D01*
X0042002Y0134113D01*
X0042089Y0134232D01*
X0042180Y0134349D01*
X0042274Y0134464D01*
X0042370Y0134576D01*
X0042470Y0134686D01*
X0042572Y0134792D01*
X0042678Y0134896D01*
X0042786Y0134997D01*
X0042897Y0135095D01*
X0043010Y0135191D01*
X0043126Y0135283D01*
X0043244Y0135372D01*
X0043365Y0135457D01*
X0043488Y0135540D01*
X0043613Y0135619D01*
X0043740Y0135695D01*
X0043869Y0135767D01*
X0044000Y0135836D01*
X0044133Y0135901D01*
X0044268Y0135962D01*
X0044404Y0136020D01*
X0044541Y0136075D01*
X0044680Y0136125D01*
X0044821Y0136172D01*
X0044962Y0136215D01*
X0045105Y0136255D01*
X0045249Y0136290D01*
X0045393Y0136322D01*
X0045539Y0136349D01*
X0045685Y0136373D01*
X0045832Y0136393D01*
X0045979Y0136409D01*
X0046126Y0136421D01*
X0046274Y0136429D01*
X0046422Y0136433D01*
X0046570Y0136433D01*
X0046718Y0136429D01*
X0046866Y0136421D01*
X0047013Y0136409D01*
X0047160Y0136393D01*
X0047307Y0136373D01*
X0047453Y0136349D01*
X0047599Y0136322D01*
X0047743Y0136290D01*
X0047887Y0136255D01*
X0048030Y0136215D01*
X0048171Y0136172D01*
X0048312Y0136125D01*
X0048451Y0136075D01*
X0048588Y0136020D01*
X0048724Y0135962D01*
X0048859Y0135901D01*
X0048992Y0135836D01*
X0049123Y0135767D01*
X0049252Y0135695D01*
X0049379Y0135619D01*
X0049504Y0135540D01*
X0049627Y0135457D01*
X0049748Y0135372D01*
X0049866Y0135283D01*
X0049982Y0135191D01*
X0050095Y0135095D01*
X0050206Y0134997D01*
X0050314Y0134896D01*
X0050420Y0134792D01*
X0050522Y0134686D01*
X0050622Y0134576D01*
X0050718Y0134464D01*
X0050812Y0134349D01*
X0050903Y0134232D01*
X0050990Y0134113D01*
X0051074Y0133991D01*
X0051155Y0133867D01*
X0051232Y0133741D01*
X0051306Y0133613D01*
X0051377Y0133483D01*
X0051444Y0133351D01*
X0051507Y0133217D01*
X0051567Y0133082D01*
X0051623Y0132945D01*
X0051676Y0132806D01*
X0051724Y0132666D01*
X0051769Y0132525D01*
X0051810Y0132383D01*
X0051848Y0132240D01*
X0051881Y0132096D01*
X0051911Y0131951D01*
X0051937Y0131805D01*
X0051958Y0131659D01*
X0051976Y0131512D01*
X0051990Y0131365D01*
X0052000Y0131217D01*
X0052006Y0131069D01*
X0052008Y0130921D01*
X0052006Y0130773D01*
X0052000Y0130625D01*
X0051990Y0130477D01*
X0051976Y0130330D01*
X0051958Y0130183D01*
X0051937Y0130037D01*
X0051911Y0129891D01*
X0051881Y0129746D01*
X0051848Y0129602D01*
X0051810Y0129459D01*
X0051769Y0129317D01*
X0051724Y0129176D01*
X0051676Y0129036D01*
X0051623Y0128897D01*
X0051567Y0128760D01*
X0051507Y0128625D01*
X0051444Y0128491D01*
X0051377Y0128359D01*
X0051306Y0128229D01*
X0051232Y0128101D01*
X0051155Y0127975D01*
X0051074Y0127851D01*
X0050990Y0127729D01*
X0050903Y0127610D01*
X0050812Y0127493D01*
X0050718Y0127378D01*
X0050622Y0127266D01*
X0050522Y0127156D01*
X0050420Y0127050D01*
X0050314Y0126946D01*
X0050206Y0126845D01*
X0050095Y0126747D01*
X0049982Y0126651D01*
X0049866Y0126559D01*
X0049748Y0126470D01*
X0049627Y0126385D01*
X0049504Y0126302D01*
X0049379Y0126223D01*
X0049252Y0126147D01*
X0049123Y0126075D01*
X0048992Y0126006D01*
X0048859Y0125941D01*
X0048724Y0125880D01*
X0048588Y0125822D01*
X0048451Y0125767D01*
X0048312Y0125717D01*
X0048171Y0125670D01*
X0048030Y0125627D01*
X0047887Y0125587D01*
X0047743Y0125552D01*
X0047599Y0125520D01*
X0047453Y0125493D01*
X0047307Y0125469D01*
X0047160Y0125449D01*
X0047013Y0125433D01*
X0046866Y0125421D01*
X0046718Y0125413D01*
X0046570Y0125409D01*
X0046422Y0125409D01*
X0046274Y0125413D01*
X0046126Y0125421D01*
X0045979Y0125433D01*
X0045832Y0125449D01*
X0045685Y0125469D01*
X0045539Y0125493D01*
X0045393Y0125520D01*
X0045249Y0125552D01*
X0045105Y0125587D01*
X0044962Y0125627D01*
X0044821Y0125670D01*
X0044680Y0125717D01*
X0044541Y0125767D01*
X0044404Y0125822D01*
X0044268Y0125880D01*
X0044133Y0125941D01*
X0044000Y0126006D01*
X0043869Y0126075D01*
X0043740Y0126147D01*
X0043613Y0126223D01*
X0043488Y0126302D01*
X0043365Y0126385D01*
X0043244Y0126470D01*
X0043126Y0126559D01*
X0043010Y0126651D01*
X0042897Y0126747D01*
X0042786Y0126845D01*
X0042678Y0126946D01*
X0042572Y0127050D01*
X0042470Y0127156D01*
X0042370Y0127266D01*
X0042274Y0127378D01*
X0042180Y0127493D01*
X0042089Y0127610D01*
X0042002Y0127729D01*
X0041918Y0127851D01*
X0041837Y0127975D01*
X0041760Y0128101D01*
X0041686Y0128229D01*
X0041615Y0128359D01*
X0041548Y0128491D01*
X0041485Y0128625D01*
X0041425Y0128760D01*
X0041369Y0128897D01*
X0041316Y0129036D01*
X0041268Y0129176D01*
X0041223Y0129317D01*
X0041182Y0129459D01*
X0041144Y0129602D01*
X0041111Y0129746D01*
X0041081Y0129891D01*
X0041055Y0130037D01*
X0041034Y0130183D01*
X0041016Y0130330D01*
X0041002Y0130477D01*
X0040992Y0130625D01*
X0040986Y0130773D01*
X0040984Y0130921D01*
X0025236Y0130921D02*
X0025238Y0131069D01*
X0025244Y0131217D01*
X0025254Y0131365D01*
X0025268Y0131512D01*
X0025286Y0131659D01*
X0025307Y0131805D01*
X0025333Y0131951D01*
X0025363Y0132096D01*
X0025396Y0132240D01*
X0025434Y0132383D01*
X0025475Y0132525D01*
X0025520Y0132666D01*
X0025568Y0132806D01*
X0025621Y0132945D01*
X0025677Y0133082D01*
X0025737Y0133217D01*
X0025800Y0133351D01*
X0025867Y0133483D01*
X0025938Y0133613D01*
X0026012Y0133741D01*
X0026089Y0133867D01*
X0026170Y0133991D01*
X0026254Y0134113D01*
X0026341Y0134232D01*
X0026432Y0134349D01*
X0026526Y0134464D01*
X0026622Y0134576D01*
X0026722Y0134686D01*
X0026824Y0134792D01*
X0026930Y0134896D01*
X0027038Y0134997D01*
X0027149Y0135095D01*
X0027262Y0135191D01*
X0027378Y0135283D01*
X0027496Y0135372D01*
X0027617Y0135457D01*
X0027740Y0135540D01*
X0027865Y0135619D01*
X0027992Y0135695D01*
X0028121Y0135767D01*
X0028252Y0135836D01*
X0028385Y0135901D01*
X0028520Y0135962D01*
X0028656Y0136020D01*
X0028793Y0136075D01*
X0028932Y0136125D01*
X0029073Y0136172D01*
X0029214Y0136215D01*
X0029357Y0136255D01*
X0029501Y0136290D01*
X0029645Y0136322D01*
X0029791Y0136349D01*
X0029937Y0136373D01*
X0030084Y0136393D01*
X0030231Y0136409D01*
X0030378Y0136421D01*
X0030526Y0136429D01*
X0030674Y0136433D01*
X0030822Y0136433D01*
X0030970Y0136429D01*
X0031118Y0136421D01*
X0031265Y0136409D01*
X0031412Y0136393D01*
X0031559Y0136373D01*
X0031705Y0136349D01*
X0031851Y0136322D01*
X0031995Y0136290D01*
X0032139Y0136255D01*
X0032282Y0136215D01*
X0032423Y0136172D01*
X0032564Y0136125D01*
X0032703Y0136075D01*
X0032840Y0136020D01*
X0032976Y0135962D01*
X0033111Y0135901D01*
X0033244Y0135836D01*
X0033375Y0135767D01*
X0033504Y0135695D01*
X0033631Y0135619D01*
X0033756Y0135540D01*
X0033879Y0135457D01*
X0034000Y0135372D01*
X0034118Y0135283D01*
X0034234Y0135191D01*
X0034347Y0135095D01*
X0034458Y0134997D01*
X0034566Y0134896D01*
X0034672Y0134792D01*
X0034774Y0134686D01*
X0034874Y0134576D01*
X0034970Y0134464D01*
X0035064Y0134349D01*
X0035155Y0134232D01*
X0035242Y0134113D01*
X0035326Y0133991D01*
X0035407Y0133867D01*
X0035484Y0133741D01*
X0035558Y0133613D01*
X0035629Y0133483D01*
X0035696Y0133351D01*
X0035759Y0133217D01*
X0035819Y0133082D01*
X0035875Y0132945D01*
X0035928Y0132806D01*
X0035976Y0132666D01*
X0036021Y0132525D01*
X0036062Y0132383D01*
X0036100Y0132240D01*
X0036133Y0132096D01*
X0036163Y0131951D01*
X0036189Y0131805D01*
X0036210Y0131659D01*
X0036228Y0131512D01*
X0036242Y0131365D01*
X0036252Y0131217D01*
X0036258Y0131069D01*
X0036260Y0130921D01*
X0036258Y0130773D01*
X0036252Y0130625D01*
X0036242Y0130477D01*
X0036228Y0130330D01*
X0036210Y0130183D01*
X0036189Y0130037D01*
X0036163Y0129891D01*
X0036133Y0129746D01*
X0036100Y0129602D01*
X0036062Y0129459D01*
X0036021Y0129317D01*
X0035976Y0129176D01*
X0035928Y0129036D01*
X0035875Y0128897D01*
X0035819Y0128760D01*
X0035759Y0128625D01*
X0035696Y0128491D01*
X0035629Y0128359D01*
X0035558Y0128229D01*
X0035484Y0128101D01*
X0035407Y0127975D01*
X0035326Y0127851D01*
X0035242Y0127729D01*
X0035155Y0127610D01*
X0035064Y0127493D01*
X0034970Y0127378D01*
X0034874Y0127266D01*
X0034774Y0127156D01*
X0034672Y0127050D01*
X0034566Y0126946D01*
X0034458Y0126845D01*
X0034347Y0126747D01*
X0034234Y0126651D01*
X0034118Y0126559D01*
X0034000Y0126470D01*
X0033879Y0126385D01*
X0033756Y0126302D01*
X0033631Y0126223D01*
X0033504Y0126147D01*
X0033375Y0126075D01*
X0033244Y0126006D01*
X0033111Y0125941D01*
X0032976Y0125880D01*
X0032840Y0125822D01*
X0032703Y0125767D01*
X0032564Y0125717D01*
X0032423Y0125670D01*
X0032282Y0125627D01*
X0032139Y0125587D01*
X0031995Y0125552D01*
X0031851Y0125520D01*
X0031705Y0125493D01*
X0031559Y0125469D01*
X0031412Y0125449D01*
X0031265Y0125433D01*
X0031118Y0125421D01*
X0030970Y0125413D01*
X0030822Y0125409D01*
X0030674Y0125409D01*
X0030526Y0125413D01*
X0030378Y0125421D01*
X0030231Y0125433D01*
X0030084Y0125449D01*
X0029937Y0125469D01*
X0029791Y0125493D01*
X0029645Y0125520D01*
X0029501Y0125552D01*
X0029357Y0125587D01*
X0029214Y0125627D01*
X0029073Y0125670D01*
X0028932Y0125717D01*
X0028793Y0125767D01*
X0028656Y0125822D01*
X0028520Y0125880D01*
X0028385Y0125941D01*
X0028252Y0126006D01*
X0028121Y0126075D01*
X0027992Y0126147D01*
X0027865Y0126223D01*
X0027740Y0126302D01*
X0027617Y0126385D01*
X0027496Y0126470D01*
X0027378Y0126559D01*
X0027262Y0126651D01*
X0027149Y0126747D01*
X0027038Y0126845D01*
X0026930Y0126946D01*
X0026824Y0127050D01*
X0026722Y0127156D01*
X0026622Y0127266D01*
X0026526Y0127378D01*
X0026432Y0127493D01*
X0026341Y0127610D01*
X0026254Y0127729D01*
X0026170Y0127851D01*
X0026089Y0127975D01*
X0026012Y0128101D01*
X0025938Y0128229D01*
X0025867Y0128359D01*
X0025800Y0128491D01*
X0025737Y0128625D01*
X0025677Y0128760D01*
X0025621Y0128897D01*
X0025568Y0129036D01*
X0025520Y0129176D01*
X0025475Y0129317D01*
X0025434Y0129459D01*
X0025396Y0129602D01*
X0025363Y0129746D01*
X0025333Y0129891D01*
X0025307Y0130037D01*
X0025286Y0130183D01*
X0025268Y0130330D01*
X0025254Y0130477D01*
X0025244Y0130625D01*
X0025238Y0130773D01*
X0025236Y0130921D01*
X0009488Y0130921D02*
X0009490Y0131069D01*
X0009496Y0131217D01*
X0009506Y0131365D01*
X0009520Y0131512D01*
X0009538Y0131659D01*
X0009559Y0131805D01*
X0009585Y0131951D01*
X0009615Y0132096D01*
X0009648Y0132240D01*
X0009686Y0132383D01*
X0009727Y0132525D01*
X0009772Y0132666D01*
X0009820Y0132806D01*
X0009873Y0132945D01*
X0009929Y0133082D01*
X0009989Y0133217D01*
X0010052Y0133351D01*
X0010119Y0133483D01*
X0010190Y0133613D01*
X0010264Y0133741D01*
X0010341Y0133867D01*
X0010422Y0133991D01*
X0010506Y0134113D01*
X0010593Y0134232D01*
X0010684Y0134349D01*
X0010778Y0134464D01*
X0010874Y0134576D01*
X0010974Y0134686D01*
X0011076Y0134792D01*
X0011182Y0134896D01*
X0011290Y0134997D01*
X0011401Y0135095D01*
X0011514Y0135191D01*
X0011630Y0135283D01*
X0011748Y0135372D01*
X0011869Y0135457D01*
X0011992Y0135540D01*
X0012117Y0135619D01*
X0012244Y0135695D01*
X0012373Y0135767D01*
X0012504Y0135836D01*
X0012637Y0135901D01*
X0012772Y0135962D01*
X0012908Y0136020D01*
X0013045Y0136075D01*
X0013184Y0136125D01*
X0013325Y0136172D01*
X0013466Y0136215D01*
X0013609Y0136255D01*
X0013753Y0136290D01*
X0013897Y0136322D01*
X0014043Y0136349D01*
X0014189Y0136373D01*
X0014336Y0136393D01*
X0014483Y0136409D01*
X0014630Y0136421D01*
X0014778Y0136429D01*
X0014926Y0136433D01*
X0015074Y0136433D01*
X0015222Y0136429D01*
X0015370Y0136421D01*
X0015517Y0136409D01*
X0015664Y0136393D01*
X0015811Y0136373D01*
X0015957Y0136349D01*
X0016103Y0136322D01*
X0016247Y0136290D01*
X0016391Y0136255D01*
X0016534Y0136215D01*
X0016675Y0136172D01*
X0016816Y0136125D01*
X0016955Y0136075D01*
X0017092Y0136020D01*
X0017228Y0135962D01*
X0017363Y0135901D01*
X0017496Y0135836D01*
X0017627Y0135767D01*
X0017756Y0135695D01*
X0017883Y0135619D01*
X0018008Y0135540D01*
X0018131Y0135457D01*
X0018252Y0135372D01*
X0018370Y0135283D01*
X0018486Y0135191D01*
X0018599Y0135095D01*
X0018710Y0134997D01*
X0018818Y0134896D01*
X0018924Y0134792D01*
X0019026Y0134686D01*
X0019126Y0134576D01*
X0019222Y0134464D01*
X0019316Y0134349D01*
X0019407Y0134232D01*
X0019494Y0134113D01*
X0019578Y0133991D01*
X0019659Y0133867D01*
X0019736Y0133741D01*
X0019810Y0133613D01*
X0019881Y0133483D01*
X0019948Y0133351D01*
X0020011Y0133217D01*
X0020071Y0133082D01*
X0020127Y0132945D01*
X0020180Y0132806D01*
X0020228Y0132666D01*
X0020273Y0132525D01*
X0020314Y0132383D01*
X0020352Y0132240D01*
X0020385Y0132096D01*
X0020415Y0131951D01*
X0020441Y0131805D01*
X0020462Y0131659D01*
X0020480Y0131512D01*
X0020494Y0131365D01*
X0020504Y0131217D01*
X0020510Y0131069D01*
X0020512Y0130921D01*
X0020510Y0130773D01*
X0020504Y0130625D01*
X0020494Y0130477D01*
X0020480Y0130330D01*
X0020462Y0130183D01*
X0020441Y0130037D01*
X0020415Y0129891D01*
X0020385Y0129746D01*
X0020352Y0129602D01*
X0020314Y0129459D01*
X0020273Y0129317D01*
X0020228Y0129176D01*
X0020180Y0129036D01*
X0020127Y0128897D01*
X0020071Y0128760D01*
X0020011Y0128625D01*
X0019948Y0128491D01*
X0019881Y0128359D01*
X0019810Y0128229D01*
X0019736Y0128101D01*
X0019659Y0127975D01*
X0019578Y0127851D01*
X0019494Y0127729D01*
X0019407Y0127610D01*
X0019316Y0127493D01*
X0019222Y0127378D01*
X0019126Y0127266D01*
X0019026Y0127156D01*
X0018924Y0127050D01*
X0018818Y0126946D01*
X0018710Y0126845D01*
X0018599Y0126747D01*
X0018486Y0126651D01*
X0018370Y0126559D01*
X0018252Y0126470D01*
X0018131Y0126385D01*
X0018008Y0126302D01*
X0017883Y0126223D01*
X0017756Y0126147D01*
X0017627Y0126075D01*
X0017496Y0126006D01*
X0017363Y0125941D01*
X0017228Y0125880D01*
X0017092Y0125822D01*
X0016955Y0125767D01*
X0016816Y0125717D01*
X0016675Y0125670D01*
X0016534Y0125627D01*
X0016391Y0125587D01*
X0016247Y0125552D01*
X0016103Y0125520D01*
X0015957Y0125493D01*
X0015811Y0125469D01*
X0015664Y0125449D01*
X0015517Y0125433D01*
X0015370Y0125421D01*
X0015222Y0125413D01*
X0015074Y0125409D01*
X0014926Y0125409D01*
X0014778Y0125413D01*
X0014630Y0125421D01*
X0014483Y0125433D01*
X0014336Y0125449D01*
X0014189Y0125469D01*
X0014043Y0125493D01*
X0013897Y0125520D01*
X0013753Y0125552D01*
X0013609Y0125587D01*
X0013466Y0125627D01*
X0013325Y0125670D01*
X0013184Y0125717D01*
X0013045Y0125767D01*
X0012908Y0125822D01*
X0012772Y0125880D01*
X0012637Y0125941D01*
X0012504Y0126006D01*
X0012373Y0126075D01*
X0012244Y0126147D01*
X0012117Y0126223D01*
X0011992Y0126302D01*
X0011869Y0126385D01*
X0011748Y0126470D01*
X0011630Y0126559D01*
X0011514Y0126651D01*
X0011401Y0126747D01*
X0011290Y0126845D01*
X0011182Y0126946D01*
X0011076Y0127050D01*
X0010974Y0127156D01*
X0010874Y0127266D01*
X0010778Y0127378D01*
X0010684Y0127493D01*
X0010593Y0127610D01*
X0010506Y0127729D01*
X0010422Y0127851D01*
X0010341Y0127975D01*
X0010264Y0128101D01*
X0010190Y0128229D01*
X0010119Y0128359D01*
X0010052Y0128491D01*
X0009989Y0128625D01*
X0009929Y0128760D01*
X0009873Y0128897D01*
X0009820Y0129036D01*
X0009772Y0129176D01*
X0009727Y0129317D01*
X0009686Y0129459D01*
X0009648Y0129602D01*
X0009615Y0129746D01*
X0009585Y0129891D01*
X0009559Y0130037D01*
X0009538Y0130183D01*
X0009520Y0130330D01*
X0009506Y0130477D01*
X0009496Y0130625D01*
X0009490Y0130773D01*
X0009488Y0130921D01*
X0020118Y0099071D02*
X0020120Y0099269D01*
X0020128Y0099467D01*
X0020140Y0099665D01*
X0020157Y0099862D01*
X0020179Y0100059D01*
X0020205Y0100255D01*
X0020237Y0100451D01*
X0020273Y0100646D01*
X0020314Y0100839D01*
X0020360Y0101032D01*
X0020410Y0101224D01*
X0020466Y0101414D01*
X0020525Y0101603D01*
X0020590Y0101790D01*
X0020659Y0101976D01*
X0020732Y0102160D01*
X0020810Y0102342D01*
X0020893Y0102522D01*
X0020980Y0102700D01*
X0021071Y0102876D01*
X0021167Y0103049D01*
X0021266Y0103220D01*
X0021370Y0103389D01*
X0021478Y0103555D01*
X0021590Y0103718D01*
X0021706Y0103879D01*
X0021826Y0104037D01*
X0021950Y0104191D01*
X0022078Y0104343D01*
X0022209Y0104491D01*
X0022344Y0104636D01*
X0022482Y0104778D01*
X0022624Y0104916D01*
X0022769Y0105051D01*
X0022917Y0105182D01*
X0023069Y0105310D01*
X0023223Y0105434D01*
X0023381Y0105554D01*
X0023542Y0105670D01*
X0023705Y0105782D01*
X0023871Y0105890D01*
X0024040Y0105994D01*
X0024211Y0106093D01*
X0024384Y0106189D01*
X0024560Y0106280D01*
X0024738Y0106367D01*
X0024918Y0106450D01*
X0025100Y0106528D01*
X0025284Y0106601D01*
X0025470Y0106670D01*
X0025657Y0106735D01*
X0025846Y0106794D01*
X0026036Y0106850D01*
X0026228Y0106900D01*
X0026421Y0106946D01*
X0026614Y0106987D01*
X0026809Y0107023D01*
X0027005Y0107055D01*
X0027201Y0107081D01*
X0027398Y0107103D01*
X0027595Y0107120D01*
X0027793Y0107132D01*
X0027991Y0107140D01*
X0028189Y0107142D01*
X0028387Y0107140D01*
X0028585Y0107132D01*
X0028783Y0107120D01*
X0028980Y0107103D01*
X0029177Y0107081D01*
X0029373Y0107055D01*
X0029569Y0107023D01*
X0029764Y0106987D01*
X0029957Y0106946D01*
X0030150Y0106900D01*
X0030342Y0106850D01*
X0030532Y0106794D01*
X0030721Y0106735D01*
X0030908Y0106670D01*
X0031094Y0106601D01*
X0031278Y0106528D01*
X0031460Y0106450D01*
X0031640Y0106367D01*
X0031818Y0106280D01*
X0031994Y0106189D01*
X0032167Y0106093D01*
X0032338Y0105994D01*
X0032507Y0105890D01*
X0032673Y0105782D01*
X0032836Y0105670D01*
X0032997Y0105554D01*
X0033155Y0105434D01*
X0033309Y0105310D01*
X0033461Y0105182D01*
X0033609Y0105051D01*
X0033754Y0104916D01*
X0033896Y0104778D01*
X0034034Y0104636D01*
X0034169Y0104491D01*
X0034300Y0104343D01*
X0034428Y0104191D01*
X0034552Y0104037D01*
X0034672Y0103879D01*
X0034788Y0103718D01*
X0034900Y0103555D01*
X0035008Y0103389D01*
X0035112Y0103220D01*
X0035211Y0103049D01*
X0035307Y0102876D01*
X0035398Y0102700D01*
X0035485Y0102522D01*
X0035568Y0102342D01*
X0035646Y0102160D01*
X0035719Y0101976D01*
X0035788Y0101790D01*
X0035853Y0101603D01*
X0035912Y0101414D01*
X0035968Y0101224D01*
X0036018Y0101032D01*
X0036064Y0100839D01*
X0036105Y0100646D01*
X0036141Y0100451D01*
X0036173Y0100255D01*
X0036199Y0100059D01*
X0036221Y0099862D01*
X0036238Y0099665D01*
X0036250Y0099467D01*
X0036258Y0099269D01*
X0036260Y0099071D01*
X0036258Y0098873D01*
X0036250Y0098675D01*
X0036238Y0098477D01*
X0036221Y0098280D01*
X0036199Y0098083D01*
X0036173Y0097887D01*
X0036141Y0097691D01*
X0036105Y0097496D01*
X0036064Y0097303D01*
X0036018Y0097110D01*
X0035968Y0096918D01*
X0035912Y0096728D01*
X0035853Y0096539D01*
X0035788Y0096352D01*
X0035719Y0096166D01*
X0035646Y0095982D01*
X0035568Y0095800D01*
X0035485Y0095620D01*
X0035398Y0095442D01*
X0035307Y0095266D01*
X0035211Y0095093D01*
X0035112Y0094922D01*
X0035008Y0094753D01*
X0034900Y0094587D01*
X0034788Y0094424D01*
X0034672Y0094263D01*
X0034552Y0094105D01*
X0034428Y0093951D01*
X0034300Y0093799D01*
X0034169Y0093651D01*
X0034034Y0093506D01*
X0033896Y0093364D01*
X0033754Y0093226D01*
X0033609Y0093091D01*
X0033461Y0092960D01*
X0033309Y0092832D01*
X0033155Y0092708D01*
X0032997Y0092588D01*
X0032836Y0092472D01*
X0032673Y0092360D01*
X0032507Y0092252D01*
X0032338Y0092148D01*
X0032167Y0092049D01*
X0031994Y0091953D01*
X0031818Y0091862D01*
X0031640Y0091775D01*
X0031460Y0091692D01*
X0031278Y0091614D01*
X0031094Y0091541D01*
X0030908Y0091472D01*
X0030721Y0091407D01*
X0030532Y0091348D01*
X0030342Y0091292D01*
X0030150Y0091242D01*
X0029957Y0091196D01*
X0029764Y0091155D01*
X0029569Y0091119D01*
X0029373Y0091087D01*
X0029177Y0091061D01*
X0028980Y0091039D01*
X0028783Y0091022D01*
X0028585Y0091010D01*
X0028387Y0091002D01*
X0028189Y0091000D01*
X0027991Y0091002D01*
X0027793Y0091010D01*
X0027595Y0091022D01*
X0027398Y0091039D01*
X0027201Y0091061D01*
X0027005Y0091087D01*
X0026809Y0091119D01*
X0026614Y0091155D01*
X0026421Y0091196D01*
X0026228Y0091242D01*
X0026036Y0091292D01*
X0025846Y0091348D01*
X0025657Y0091407D01*
X0025470Y0091472D01*
X0025284Y0091541D01*
X0025100Y0091614D01*
X0024918Y0091692D01*
X0024738Y0091775D01*
X0024560Y0091862D01*
X0024384Y0091953D01*
X0024211Y0092049D01*
X0024040Y0092148D01*
X0023871Y0092252D01*
X0023705Y0092360D01*
X0023542Y0092472D01*
X0023381Y0092588D01*
X0023223Y0092708D01*
X0023069Y0092832D01*
X0022917Y0092960D01*
X0022769Y0093091D01*
X0022624Y0093226D01*
X0022482Y0093364D01*
X0022344Y0093506D01*
X0022209Y0093651D01*
X0022078Y0093799D01*
X0021950Y0093951D01*
X0021826Y0094105D01*
X0021706Y0094263D01*
X0021590Y0094424D01*
X0021478Y0094587D01*
X0021370Y0094753D01*
X0021266Y0094922D01*
X0021167Y0095093D01*
X0021071Y0095266D01*
X0020980Y0095442D01*
X0020893Y0095620D01*
X0020810Y0095800D01*
X0020732Y0095982D01*
X0020659Y0096166D01*
X0020590Y0096352D01*
X0020525Y0096539D01*
X0020466Y0096728D01*
X0020410Y0096918D01*
X0020360Y0097110D01*
X0020314Y0097303D01*
X0020273Y0097496D01*
X0020237Y0097691D01*
X0020205Y0097887D01*
X0020179Y0098083D01*
X0020157Y0098280D01*
X0020140Y0098477D01*
X0020128Y0098675D01*
X0020120Y0098873D01*
X0020118Y0099071D01*
X0020118Y0166000D02*
X0020120Y0166198D01*
X0020128Y0166396D01*
X0020140Y0166594D01*
X0020157Y0166791D01*
X0020179Y0166988D01*
X0020205Y0167184D01*
X0020237Y0167380D01*
X0020273Y0167575D01*
X0020314Y0167768D01*
X0020360Y0167961D01*
X0020410Y0168153D01*
X0020466Y0168343D01*
X0020525Y0168532D01*
X0020590Y0168719D01*
X0020659Y0168905D01*
X0020732Y0169089D01*
X0020810Y0169271D01*
X0020893Y0169451D01*
X0020980Y0169629D01*
X0021071Y0169805D01*
X0021167Y0169978D01*
X0021266Y0170149D01*
X0021370Y0170318D01*
X0021478Y0170484D01*
X0021590Y0170647D01*
X0021706Y0170808D01*
X0021826Y0170966D01*
X0021950Y0171120D01*
X0022078Y0171272D01*
X0022209Y0171420D01*
X0022344Y0171565D01*
X0022482Y0171707D01*
X0022624Y0171845D01*
X0022769Y0171980D01*
X0022917Y0172111D01*
X0023069Y0172239D01*
X0023223Y0172363D01*
X0023381Y0172483D01*
X0023542Y0172599D01*
X0023705Y0172711D01*
X0023871Y0172819D01*
X0024040Y0172923D01*
X0024211Y0173022D01*
X0024384Y0173118D01*
X0024560Y0173209D01*
X0024738Y0173296D01*
X0024918Y0173379D01*
X0025100Y0173457D01*
X0025284Y0173530D01*
X0025470Y0173599D01*
X0025657Y0173664D01*
X0025846Y0173723D01*
X0026036Y0173779D01*
X0026228Y0173829D01*
X0026421Y0173875D01*
X0026614Y0173916D01*
X0026809Y0173952D01*
X0027005Y0173984D01*
X0027201Y0174010D01*
X0027398Y0174032D01*
X0027595Y0174049D01*
X0027793Y0174061D01*
X0027991Y0174069D01*
X0028189Y0174071D01*
X0028387Y0174069D01*
X0028585Y0174061D01*
X0028783Y0174049D01*
X0028980Y0174032D01*
X0029177Y0174010D01*
X0029373Y0173984D01*
X0029569Y0173952D01*
X0029764Y0173916D01*
X0029957Y0173875D01*
X0030150Y0173829D01*
X0030342Y0173779D01*
X0030532Y0173723D01*
X0030721Y0173664D01*
X0030908Y0173599D01*
X0031094Y0173530D01*
X0031278Y0173457D01*
X0031460Y0173379D01*
X0031640Y0173296D01*
X0031818Y0173209D01*
X0031994Y0173118D01*
X0032167Y0173022D01*
X0032338Y0172923D01*
X0032507Y0172819D01*
X0032673Y0172711D01*
X0032836Y0172599D01*
X0032997Y0172483D01*
X0033155Y0172363D01*
X0033309Y0172239D01*
X0033461Y0172111D01*
X0033609Y0171980D01*
X0033754Y0171845D01*
X0033896Y0171707D01*
X0034034Y0171565D01*
X0034169Y0171420D01*
X0034300Y0171272D01*
X0034428Y0171120D01*
X0034552Y0170966D01*
X0034672Y0170808D01*
X0034788Y0170647D01*
X0034900Y0170484D01*
X0035008Y0170318D01*
X0035112Y0170149D01*
X0035211Y0169978D01*
X0035307Y0169805D01*
X0035398Y0169629D01*
X0035485Y0169451D01*
X0035568Y0169271D01*
X0035646Y0169089D01*
X0035719Y0168905D01*
X0035788Y0168719D01*
X0035853Y0168532D01*
X0035912Y0168343D01*
X0035968Y0168153D01*
X0036018Y0167961D01*
X0036064Y0167768D01*
X0036105Y0167575D01*
X0036141Y0167380D01*
X0036173Y0167184D01*
X0036199Y0166988D01*
X0036221Y0166791D01*
X0036238Y0166594D01*
X0036250Y0166396D01*
X0036258Y0166198D01*
X0036260Y0166000D01*
X0036258Y0165802D01*
X0036250Y0165604D01*
X0036238Y0165406D01*
X0036221Y0165209D01*
X0036199Y0165012D01*
X0036173Y0164816D01*
X0036141Y0164620D01*
X0036105Y0164425D01*
X0036064Y0164232D01*
X0036018Y0164039D01*
X0035968Y0163847D01*
X0035912Y0163657D01*
X0035853Y0163468D01*
X0035788Y0163281D01*
X0035719Y0163095D01*
X0035646Y0162911D01*
X0035568Y0162729D01*
X0035485Y0162549D01*
X0035398Y0162371D01*
X0035307Y0162195D01*
X0035211Y0162022D01*
X0035112Y0161851D01*
X0035008Y0161682D01*
X0034900Y0161516D01*
X0034788Y0161353D01*
X0034672Y0161192D01*
X0034552Y0161034D01*
X0034428Y0160880D01*
X0034300Y0160728D01*
X0034169Y0160580D01*
X0034034Y0160435D01*
X0033896Y0160293D01*
X0033754Y0160155D01*
X0033609Y0160020D01*
X0033461Y0159889D01*
X0033309Y0159761D01*
X0033155Y0159637D01*
X0032997Y0159517D01*
X0032836Y0159401D01*
X0032673Y0159289D01*
X0032507Y0159181D01*
X0032338Y0159077D01*
X0032167Y0158978D01*
X0031994Y0158882D01*
X0031818Y0158791D01*
X0031640Y0158704D01*
X0031460Y0158621D01*
X0031278Y0158543D01*
X0031094Y0158470D01*
X0030908Y0158401D01*
X0030721Y0158336D01*
X0030532Y0158277D01*
X0030342Y0158221D01*
X0030150Y0158171D01*
X0029957Y0158125D01*
X0029764Y0158084D01*
X0029569Y0158048D01*
X0029373Y0158016D01*
X0029177Y0157990D01*
X0028980Y0157968D01*
X0028783Y0157951D01*
X0028585Y0157939D01*
X0028387Y0157931D01*
X0028189Y0157929D01*
X0027991Y0157931D01*
X0027793Y0157939D01*
X0027595Y0157951D01*
X0027398Y0157968D01*
X0027201Y0157990D01*
X0027005Y0158016D01*
X0026809Y0158048D01*
X0026614Y0158084D01*
X0026421Y0158125D01*
X0026228Y0158171D01*
X0026036Y0158221D01*
X0025846Y0158277D01*
X0025657Y0158336D01*
X0025470Y0158401D01*
X0025284Y0158470D01*
X0025100Y0158543D01*
X0024918Y0158621D01*
X0024738Y0158704D01*
X0024560Y0158791D01*
X0024384Y0158882D01*
X0024211Y0158978D01*
X0024040Y0159077D01*
X0023871Y0159181D01*
X0023705Y0159289D01*
X0023542Y0159401D01*
X0023381Y0159517D01*
X0023223Y0159637D01*
X0023069Y0159761D01*
X0022917Y0159889D01*
X0022769Y0160020D01*
X0022624Y0160155D01*
X0022482Y0160293D01*
X0022344Y0160435D01*
X0022209Y0160580D01*
X0022078Y0160728D01*
X0021950Y0160880D01*
X0021826Y0161034D01*
X0021706Y0161192D01*
X0021590Y0161353D01*
X0021478Y0161516D01*
X0021370Y0161682D01*
X0021266Y0161851D01*
X0021167Y0162022D01*
X0021071Y0162195D01*
X0020980Y0162371D01*
X0020893Y0162549D01*
X0020810Y0162729D01*
X0020732Y0162911D01*
X0020659Y0163095D01*
X0020590Y0163281D01*
X0020525Y0163468D01*
X0020466Y0163657D01*
X0020410Y0163847D01*
X0020360Y0164039D01*
X0020314Y0164232D01*
X0020273Y0164425D01*
X0020237Y0164620D01*
X0020205Y0164816D01*
X0020179Y0165012D01*
X0020157Y0165209D01*
X0020140Y0165406D01*
X0020128Y0165604D01*
X0020120Y0165802D01*
X0020118Y0166000D01*
X0117520Y0166709D02*
X0117522Y0166907D01*
X0117530Y0167105D01*
X0117542Y0167303D01*
X0117559Y0167500D01*
X0117581Y0167697D01*
X0117607Y0167893D01*
X0117639Y0168089D01*
X0117675Y0168284D01*
X0117716Y0168477D01*
X0117762Y0168670D01*
X0117812Y0168862D01*
X0117868Y0169052D01*
X0117927Y0169241D01*
X0117992Y0169428D01*
X0118061Y0169614D01*
X0118134Y0169798D01*
X0118212Y0169980D01*
X0118295Y0170160D01*
X0118382Y0170338D01*
X0118473Y0170514D01*
X0118569Y0170687D01*
X0118668Y0170858D01*
X0118772Y0171027D01*
X0118880Y0171193D01*
X0118992Y0171356D01*
X0119108Y0171517D01*
X0119228Y0171675D01*
X0119352Y0171829D01*
X0119480Y0171981D01*
X0119611Y0172129D01*
X0119746Y0172274D01*
X0119884Y0172416D01*
X0120026Y0172554D01*
X0120171Y0172689D01*
X0120319Y0172820D01*
X0120471Y0172948D01*
X0120625Y0173072D01*
X0120783Y0173192D01*
X0120944Y0173308D01*
X0121107Y0173420D01*
X0121273Y0173528D01*
X0121442Y0173632D01*
X0121613Y0173731D01*
X0121786Y0173827D01*
X0121962Y0173918D01*
X0122140Y0174005D01*
X0122320Y0174088D01*
X0122502Y0174166D01*
X0122686Y0174239D01*
X0122872Y0174308D01*
X0123059Y0174373D01*
X0123248Y0174432D01*
X0123438Y0174488D01*
X0123630Y0174538D01*
X0123823Y0174584D01*
X0124016Y0174625D01*
X0124211Y0174661D01*
X0124407Y0174693D01*
X0124603Y0174719D01*
X0124800Y0174741D01*
X0124997Y0174758D01*
X0125195Y0174770D01*
X0125393Y0174778D01*
X0125591Y0174780D01*
X0125789Y0174778D01*
X0125987Y0174770D01*
X0126185Y0174758D01*
X0126382Y0174741D01*
X0126579Y0174719D01*
X0126775Y0174693D01*
X0126971Y0174661D01*
X0127166Y0174625D01*
X0127359Y0174584D01*
X0127552Y0174538D01*
X0127744Y0174488D01*
X0127934Y0174432D01*
X0128123Y0174373D01*
X0128310Y0174308D01*
X0128496Y0174239D01*
X0128680Y0174166D01*
X0128862Y0174088D01*
X0129042Y0174005D01*
X0129220Y0173918D01*
X0129396Y0173827D01*
X0129569Y0173731D01*
X0129740Y0173632D01*
X0129909Y0173528D01*
X0130075Y0173420D01*
X0130238Y0173308D01*
X0130399Y0173192D01*
X0130557Y0173072D01*
X0130711Y0172948D01*
X0130863Y0172820D01*
X0131011Y0172689D01*
X0131156Y0172554D01*
X0131298Y0172416D01*
X0131436Y0172274D01*
X0131571Y0172129D01*
X0131702Y0171981D01*
X0131830Y0171829D01*
X0131954Y0171675D01*
X0132074Y0171517D01*
X0132190Y0171356D01*
X0132302Y0171193D01*
X0132410Y0171027D01*
X0132514Y0170858D01*
X0132613Y0170687D01*
X0132709Y0170514D01*
X0132800Y0170338D01*
X0132887Y0170160D01*
X0132970Y0169980D01*
X0133048Y0169798D01*
X0133121Y0169614D01*
X0133190Y0169428D01*
X0133255Y0169241D01*
X0133314Y0169052D01*
X0133370Y0168862D01*
X0133420Y0168670D01*
X0133466Y0168477D01*
X0133507Y0168284D01*
X0133543Y0168089D01*
X0133575Y0167893D01*
X0133601Y0167697D01*
X0133623Y0167500D01*
X0133640Y0167303D01*
X0133652Y0167105D01*
X0133660Y0166907D01*
X0133662Y0166709D01*
X0133660Y0166511D01*
X0133652Y0166313D01*
X0133640Y0166115D01*
X0133623Y0165918D01*
X0133601Y0165721D01*
X0133575Y0165525D01*
X0133543Y0165329D01*
X0133507Y0165134D01*
X0133466Y0164941D01*
X0133420Y0164748D01*
X0133370Y0164556D01*
X0133314Y0164366D01*
X0133255Y0164177D01*
X0133190Y0163990D01*
X0133121Y0163804D01*
X0133048Y0163620D01*
X0132970Y0163438D01*
X0132887Y0163258D01*
X0132800Y0163080D01*
X0132709Y0162904D01*
X0132613Y0162731D01*
X0132514Y0162560D01*
X0132410Y0162391D01*
X0132302Y0162225D01*
X0132190Y0162062D01*
X0132074Y0161901D01*
X0131954Y0161743D01*
X0131830Y0161589D01*
X0131702Y0161437D01*
X0131571Y0161289D01*
X0131436Y0161144D01*
X0131298Y0161002D01*
X0131156Y0160864D01*
X0131011Y0160729D01*
X0130863Y0160598D01*
X0130711Y0160470D01*
X0130557Y0160346D01*
X0130399Y0160226D01*
X0130238Y0160110D01*
X0130075Y0159998D01*
X0129909Y0159890D01*
X0129740Y0159786D01*
X0129569Y0159687D01*
X0129396Y0159591D01*
X0129220Y0159500D01*
X0129042Y0159413D01*
X0128862Y0159330D01*
X0128680Y0159252D01*
X0128496Y0159179D01*
X0128310Y0159110D01*
X0128123Y0159045D01*
X0127934Y0158986D01*
X0127744Y0158930D01*
X0127552Y0158880D01*
X0127359Y0158834D01*
X0127166Y0158793D01*
X0126971Y0158757D01*
X0126775Y0158725D01*
X0126579Y0158699D01*
X0126382Y0158677D01*
X0126185Y0158660D01*
X0125987Y0158648D01*
X0125789Y0158640D01*
X0125591Y0158638D01*
X0125393Y0158640D01*
X0125195Y0158648D01*
X0124997Y0158660D01*
X0124800Y0158677D01*
X0124603Y0158699D01*
X0124407Y0158725D01*
X0124211Y0158757D01*
X0124016Y0158793D01*
X0123823Y0158834D01*
X0123630Y0158880D01*
X0123438Y0158930D01*
X0123248Y0158986D01*
X0123059Y0159045D01*
X0122872Y0159110D01*
X0122686Y0159179D01*
X0122502Y0159252D01*
X0122320Y0159330D01*
X0122140Y0159413D01*
X0121962Y0159500D01*
X0121786Y0159591D01*
X0121613Y0159687D01*
X0121442Y0159786D01*
X0121273Y0159890D01*
X0121107Y0159998D01*
X0120944Y0160110D01*
X0120783Y0160226D01*
X0120625Y0160346D01*
X0120471Y0160470D01*
X0120319Y0160598D01*
X0120171Y0160729D01*
X0120026Y0160864D01*
X0119884Y0161002D01*
X0119746Y0161144D01*
X0119611Y0161289D01*
X0119480Y0161437D01*
X0119352Y0161589D01*
X0119228Y0161743D01*
X0119108Y0161901D01*
X0118992Y0162062D01*
X0118880Y0162225D01*
X0118772Y0162391D01*
X0118668Y0162560D01*
X0118569Y0162731D01*
X0118473Y0162904D01*
X0118382Y0163080D01*
X0118295Y0163258D01*
X0118212Y0163438D01*
X0118134Y0163620D01*
X0118061Y0163804D01*
X0117992Y0163990D01*
X0117927Y0164177D01*
X0117868Y0164366D01*
X0117812Y0164556D01*
X0117762Y0164748D01*
X0117716Y0164941D01*
X0117675Y0165134D01*
X0117639Y0165329D01*
X0117607Y0165525D01*
X0117581Y0165721D01*
X0117559Y0165918D01*
X0117542Y0166115D01*
X0117530Y0166313D01*
X0117522Y0166511D01*
X0117520Y0166709D01*
X0135472Y0130921D02*
X0135474Y0131069D01*
X0135480Y0131217D01*
X0135490Y0131365D01*
X0135504Y0131512D01*
X0135522Y0131659D01*
X0135543Y0131805D01*
X0135569Y0131951D01*
X0135599Y0132096D01*
X0135632Y0132240D01*
X0135670Y0132383D01*
X0135711Y0132525D01*
X0135756Y0132666D01*
X0135804Y0132806D01*
X0135857Y0132945D01*
X0135913Y0133082D01*
X0135973Y0133217D01*
X0136036Y0133351D01*
X0136103Y0133483D01*
X0136174Y0133613D01*
X0136248Y0133741D01*
X0136325Y0133867D01*
X0136406Y0133991D01*
X0136490Y0134113D01*
X0136577Y0134232D01*
X0136668Y0134349D01*
X0136762Y0134464D01*
X0136858Y0134576D01*
X0136958Y0134686D01*
X0137060Y0134792D01*
X0137166Y0134896D01*
X0137274Y0134997D01*
X0137385Y0135095D01*
X0137498Y0135191D01*
X0137614Y0135283D01*
X0137732Y0135372D01*
X0137853Y0135457D01*
X0137976Y0135540D01*
X0138101Y0135619D01*
X0138228Y0135695D01*
X0138357Y0135767D01*
X0138488Y0135836D01*
X0138621Y0135901D01*
X0138756Y0135962D01*
X0138892Y0136020D01*
X0139029Y0136075D01*
X0139168Y0136125D01*
X0139309Y0136172D01*
X0139450Y0136215D01*
X0139593Y0136255D01*
X0139737Y0136290D01*
X0139881Y0136322D01*
X0140027Y0136349D01*
X0140173Y0136373D01*
X0140320Y0136393D01*
X0140467Y0136409D01*
X0140614Y0136421D01*
X0140762Y0136429D01*
X0140910Y0136433D01*
X0141058Y0136433D01*
X0141206Y0136429D01*
X0141354Y0136421D01*
X0141501Y0136409D01*
X0141648Y0136393D01*
X0141795Y0136373D01*
X0141941Y0136349D01*
X0142087Y0136322D01*
X0142231Y0136290D01*
X0142375Y0136255D01*
X0142518Y0136215D01*
X0142659Y0136172D01*
X0142800Y0136125D01*
X0142939Y0136075D01*
X0143076Y0136020D01*
X0143212Y0135962D01*
X0143347Y0135901D01*
X0143480Y0135836D01*
X0143611Y0135767D01*
X0143740Y0135695D01*
X0143867Y0135619D01*
X0143992Y0135540D01*
X0144115Y0135457D01*
X0144236Y0135372D01*
X0144354Y0135283D01*
X0144470Y0135191D01*
X0144583Y0135095D01*
X0144694Y0134997D01*
X0144802Y0134896D01*
X0144908Y0134792D01*
X0145010Y0134686D01*
X0145110Y0134576D01*
X0145206Y0134464D01*
X0145300Y0134349D01*
X0145391Y0134232D01*
X0145478Y0134113D01*
X0145562Y0133991D01*
X0145643Y0133867D01*
X0145720Y0133741D01*
X0145794Y0133613D01*
X0145865Y0133483D01*
X0145932Y0133351D01*
X0145995Y0133217D01*
X0146055Y0133082D01*
X0146111Y0132945D01*
X0146164Y0132806D01*
X0146212Y0132666D01*
X0146257Y0132525D01*
X0146298Y0132383D01*
X0146336Y0132240D01*
X0146369Y0132096D01*
X0146399Y0131951D01*
X0146425Y0131805D01*
X0146446Y0131659D01*
X0146464Y0131512D01*
X0146478Y0131365D01*
X0146488Y0131217D01*
X0146494Y0131069D01*
X0146496Y0130921D01*
X0146494Y0130773D01*
X0146488Y0130625D01*
X0146478Y0130477D01*
X0146464Y0130330D01*
X0146446Y0130183D01*
X0146425Y0130037D01*
X0146399Y0129891D01*
X0146369Y0129746D01*
X0146336Y0129602D01*
X0146298Y0129459D01*
X0146257Y0129317D01*
X0146212Y0129176D01*
X0146164Y0129036D01*
X0146111Y0128897D01*
X0146055Y0128760D01*
X0145995Y0128625D01*
X0145932Y0128491D01*
X0145865Y0128359D01*
X0145794Y0128229D01*
X0145720Y0128101D01*
X0145643Y0127975D01*
X0145562Y0127851D01*
X0145478Y0127729D01*
X0145391Y0127610D01*
X0145300Y0127493D01*
X0145206Y0127378D01*
X0145110Y0127266D01*
X0145010Y0127156D01*
X0144908Y0127050D01*
X0144802Y0126946D01*
X0144694Y0126845D01*
X0144583Y0126747D01*
X0144470Y0126651D01*
X0144354Y0126559D01*
X0144236Y0126470D01*
X0144115Y0126385D01*
X0143992Y0126302D01*
X0143867Y0126223D01*
X0143740Y0126147D01*
X0143611Y0126075D01*
X0143480Y0126006D01*
X0143347Y0125941D01*
X0143212Y0125880D01*
X0143076Y0125822D01*
X0142939Y0125767D01*
X0142800Y0125717D01*
X0142659Y0125670D01*
X0142518Y0125627D01*
X0142375Y0125587D01*
X0142231Y0125552D01*
X0142087Y0125520D01*
X0141941Y0125493D01*
X0141795Y0125469D01*
X0141648Y0125449D01*
X0141501Y0125433D01*
X0141354Y0125421D01*
X0141206Y0125413D01*
X0141058Y0125409D01*
X0140910Y0125409D01*
X0140762Y0125413D01*
X0140614Y0125421D01*
X0140467Y0125433D01*
X0140320Y0125449D01*
X0140173Y0125469D01*
X0140027Y0125493D01*
X0139881Y0125520D01*
X0139737Y0125552D01*
X0139593Y0125587D01*
X0139450Y0125627D01*
X0139309Y0125670D01*
X0139168Y0125717D01*
X0139029Y0125767D01*
X0138892Y0125822D01*
X0138756Y0125880D01*
X0138621Y0125941D01*
X0138488Y0126006D01*
X0138357Y0126075D01*
X0138228Y0126147D01*
X0138101Y0126223D01*
X0137976Y0126302D01*
X0137853Y0126385D01*
X0137732Y0126470D01*
X0137614Y0126559D01*
X0137498Y0126651D01*
X0137385Y0126747D01*
X0137274Y0126845D01*
X0137166Y0126946D01*
X0137060Y0127050D01*
X0136958Y0127156D01*
X0136858Y0127266D01*
X0136762Y0127378D01*
X0136668Y0127493D01*
X0136577Y0127610D01*
X0136490Y0127729D01*
X0136406Y0127851D01*
X0136325Y0127975D01*
X0136248Y0128101D01*
X0136174Y0128229D01*
X0136103Y0128359D01*
X0136036Y0128491D01*
X0135973Y0128625D01*
X0135913Y0128760D01*
X0135857Y0128897D01*
X0135804Y0129036D01*
X0135756Y0129176D01*
X0135711Y0129317D01*
X0135670Y0129459D01*
X0135632Y0129602D01*
X0135599Y0129746D01*
X0135569Y0129891D01*
X0135543Y0130037D01*
X0135522Y0130183D01*
X0135504Y0130330D01*
X0135490Y0130477D01*
X0135480Y0130625D01*
X0135474Y0130773D01*
X0135472Y0130921D01*
D11*
X0095709Y0099425D03*
X0056339Y0099425D03*
X0056339Y0032496D03*
X0095709Y0032496D03*
X0095709Y0166354D03*
X0056339Y0166354D03*
D12*
X0058307Y0166354D03*
X0054370Y0142732D03*
X0054370Y0123047D03*
X0058307Y0099425D03*
X0054370Y0075803D03*
X0054370Y0056118D03*
X0058307Y0032496D03*
X0054370Y0008874D03*
X0093740Y0032496D03*
X0097677Y0008874D03*
X0097677Y0056118D03*
X0097677Y0075803D03*
X0093740Y0099425D03*
X0097677Y0123047D03*
X0097677Y0142732D03*
X0093740Y0166354D03*
X0097677Y0189976D03*
X0054370Y0189976D03*
M02*
