%
M48
M72
T01C0.1102
T02C0.1614
%
T01
X1500Y6399
X3075Y6399
X4650Y6399
X6224Y6399
X7799Y6399
X9374Y6399
X10949Y6399
X12524Y6399
X14098Y6399
X14098Y13092
X12524Y13092
X10949Y13092
X9374Y13092
X7799Y13092
X6224Y13092
X4650Y13092
X3075Y13092
X1500Y13092
T02
X2819Y3214
X2819Y9907
X2819Y16600
X12559Y16671
X12661Y9907
X12661Y3214
M30
